<?xml version="1.0" encoding="utf-8"?>
<!-- Generator: Adobe Illustrator 19.0.0, SVG Export Plug-In . SVG Version: 6.00 Build 0)  -->
<svg version="1.1" id="Layer_1" xmlns="http://www.w3.org/2000/svg" xmlns:xlink="http://www.w3.org/1999/xlink" x="0px" y="0px"
	 viewBox="0 0 300 300" style="enable-background:new 0 0 300 300;" xml:space="preserve">
<style type="text/css">
	.st0{fill:#c0392b;}
	.st1{fill:#FFFFFF;}
</style>
<g>
	<circle class="st0" cx="150" cy="150" r="150"/>
	<path class="st1" d="M48.4,113c2.4,0,4.4,0.8,5.9,2.3s2.3,3.5,2.3,5.8c0,2.3-0.8,4.3-2.3,5.8c-1.6,1.6-3.5,2.3-5.9,2.3
		c-2.4,0-4.4-0.8-6-2.3c-1.6-1.6-2.4-3.5-2.4-5.8s0.8-4.2,2.4-5.8C44,113.8,46,113,48.4,113z M41.1,134.9h14.4v52.5H41.1V134.9z
		 M93.8,115.9c8.3,0,14.7,1.6,19.3,4.9c4.6,3.3,6.8,7.9,6.8,13.9c0,4.4-1.2,8-3.7,10.7c-2.5,2.7-5.9,4.5-10.4,5.3
		c5.3,0.7,9.4,2.4,12.3,5.1c2.9,2.7,4.3,6.5,4.3,11.4c0,6.3-2.4,11.2-7.1,14.8c-4.8,3.6-11.5,5.4-20.2,5.4H66.7v-71.5
		C66.7,115.9,93.8,115.9,93.8,115.9z M82,145.3h12.3c3.3,0,5.8-0.8,7.7-2.4c1.8-1.6,2.8-3.7,2.8-6.3c0-2.7-0.9-4.8-2.8-6.3
		c-1.8-1.6-4.4-2.3-7.7-2.3H82V145.3z M82,175.2h13.3c3.7,0,6.5-0.8,8.5-2.4c2-1.6,3-3.7,3-6.5c0-2.9-1-5.2-3.1-6.8
		c-2-1.6-4.9-2.4-8.5-2.4H82V175.2L82,175.2z M132.6,187.4v-71.5h13.9l30.3,45v-45H192v71.5h-14l-30.3-45v45L132.6,187.4
		L132.6,187.4z M231.3,115.9c8.3,0,14.7,1.6,19.3,4.9c4.6,3.3,6.8,7.9,6.8,13.9c0,4.4-1.2,8-3.7,10.7c-2.5,2.7-5.9,4.5-10.4,5.3
		c5.3,0.7,9.4,2.4,12.3,5.1c2.9,2.7,4.3,6.5,4.3,11.4c0,6.3-2.4,11.2-7.1,14.8c-4.8,3.6-11.5,5.4-20.2,5.4h-28.5v-71.5H231.3z
		 M219.5,145.3h12.3c3.3,0,5.8-0.8,7.7-2.4c1.8-1.6,2.8-3.7,2.8-6.3c0-2.7-0.9-4.8-2.8-6.3c-1.8-1.6-4.4-2.3-7.7-2.3h-12.3
		L219.5,145.3L219.5,145.3z M219.5,175.2h13.3c3.7,0,6.5-0.8,8.5-2.4c2-1.6,3-3.7,3-6.5c0-2.9-1-5.2-3.1-6.8s-4.9-2.4-8.5-2.4h-13.3
		V175.2L219.5,175.2z"/>
</g>
</svg>
