<?xml version="1.0" encoding="utf-8"?>
<!-- Generator: Adobe Illustrator 19.0.0, SVG Export Plug-In . SVG Version: 6.00 Build 0)  -->
<svg version="1.1" id="Layer_1" xmlns="http://www.w3.org/2000/svg" xmlns:xlink="http://www.w3.org/1999/xlink" x="0px" y="0px"
	 viewBox="0 0 300 300" style="enable-background:new 0 0 300 300;" xml:space="preserve">
<style type="text/css">
	.st0{fill:#c0392b;}
	.st1{fill:#FFFFFF;}
</style>
<g>
	<circle class="st0" cx="150" cy="150" r="150"/>
	<path class="st1" d="M48.6,110c2.4,0,4.5,0.8,6,2.4c1.6,1.6,2.4,3.6,2.4,6c0,2.4-0.8,4.5-2.4,6.1s-3.6,2.5-6,2.5
		c-2.4,0-4.5-0.8-6.1-2.5c-1.6-1.6-2.5-3.7-2.5-6.1c0-2.4,0.8-4.4,2.5-6C44.1,110.8,46.1,110,48.6,110z M42,134h15v55H42V134z
		 M98.2,113c8.9,0,15.8,1.7,20.7,5.2c4.9,3.5,7.3,8.4,7.3,14.8c0,4.7-1.3,8.5-3.9,11.4c-2.6,2.9-6.4,4.8-11.2,5.6
		c5.7,0.7,10.1,2.5,13.2,5.4c3.1,2.9,4.7,6.9,4.7,12.2c0,6.7-2.6,11.9-7.7,15.7c-5.1,3.8-12.4,5.7-21.7,5.7H69v-76L98.2,113
		L98.2,113z M85,144h14.1c3.7,0,6.7-0.8,8.8-2.3c2.1-1.5,3.2-3.6,3.2-6.2s-1.1-4.7-3.2-6.2c-2.1-1.5-5-2.3-8.8-2.3H85V144z M85,177
		h14.4c4,0,7.1-0.8,9.3-2.5s3.3-3.9,3.3-6.9c0-3.1-1.1-5.5-3.3-7.1c-2.2-1.7-5.3-2.5-9.2-2.5H85V177L85,177z M129,113h60v14h-21.9
		v62h-16.2v-62H129V113z M191,152c0-7.8,1.5-14.7,4.5-20.5c3-5.9,7.2-10.4,12.8-13.6c5.5-3.2,12.1-4.8,19.6-4.8
		c5.9,0,11.1,1.2,15.8,3.5s8.4,5.6,11.3,9.9c2.9,4.2,4.6,9.1,5.2,14.7h-16.1c-0.9-4.4-2.9-7.8-5.8-10.4c-3-2.5-6.7-3.8-11.1-3.8
		c-6,0-10.8,2.3-14.3,6.9c-3.5,4.6-5.3,10.7-5.3,18.2c0,7.4,1.8,13.5,5.3,18.1c3.5,4.6,8.3,7,14.3,7c4.4,0,8.1-1.3,11.1-3.8
		c3-2.5,4.9-6,5.8-10.4H260c-0.6,5.6-2.3,10.4-5.1,14.7c-2.9,4.2-6.6,7.5-11.3,9.9c-4.6,2.3-9.9,3.5-15.8,3.5
		c-7.5,0-14-1.6-19.6-4.8c-5.5-3.2-9.8-7.8-12.8-13.6C192.5,166.7,191,159.8,191,152z"/>
</g>
</svg>
