<?xml version="1.0" encoding="UTF-8" standalone="no"?>
<!DOCTYPE svg PUBLIC "-//W3C//DTD SVG 20010904//EN"
              "http://www.w3.org/TR/2001/REC-SVG-20010904/DTD/svg10.dtd">

<svg xmlns="http://www.w3.org/2000/svg"
     width="27.7778in" height="27.7778in"
     viewBox="0 0 2500 2500">
  <path id="Selection"
        fill="white" stroke="black" stroke-width="1"
        d="M 1215.00,0.11
           C 1215.00,0.11 1266.00,0.11 1266.00,0.11
             1266.00,0.11 1301.00,0.11 1301.00,0.11
             1301.00,0.11 1323.00,1.00 1323.00,1.00
             1323.00,1.00 1346.00,2.83 1346.00,2.83
             1346.00,2.83 1365.00,4.17 1365.00,4.17
             1365.00,4.17 1389.00,6.83 1389.00,6.83
             1437.46,11.68 1485.54,20.46 1533.00,31.35
             1835.10,100.68 2104.07,283.76 2279.98,539.00
             2347.73,637.31 2399.94,743.83 2437.67,857.00
             2462.57,931.71 2480.10,1008.91 2490.28,1087.00
             2490.28,1087.00 2498.09,1167.00 2498.09,1167.00
             2498.09,1167.00 2499.00,1177.00 2499.00,1177.00
             2499.00,1177.00 2500.00,1198.00 2500.00,1198.00
             2500.00,1198.00 2500.00,1304.00 2500.00,1304.00
             2500.00,1304.00 2499.00,1317.00 2499.00,1317.00
             2499.00,1317.00 2499.00,1322.00 2499.00,1322.00
             2499.00,1322.00 2498.09,1332.00 2498.09,1332.00
             2498.09,1332.00 2490.28,1413.00 2490.28,1413.00
             2479.81,1493.29 2461.11,1575.34 2435.00,1652.00
             2345.09,1915.93 2166.78,2148.08 1932.00,2299.31
             1821.96,2370.19 1707.06,2421.53 1581.00,2456.58
             1523.28,2472.62 1464.35,2483.47 1405.00,2491.28
             1405.00,2491.28 1332.00,2498.09 1332.00,2498.09
             1332.00,2498.09 1320.00,2499.00 1320.00,2499.00
             1320.00,2499.00 1297.00,2500.00 1297.00,2500.00
             1297.00,2500.00 1203.00,2500.00 1203.00,2500.00
             1203.00,2500.00 1191.00,2499.04 1191.00,2499.04
             1191.00,2499.04 1179.00,2499.04 1179.00,2499.04
             1179.00,2499.04 1168.00,2498.04 1168.00,2498.04
             1138.55,2496.76 1109.25,2493.13 1080.00,2489.28
             1001.77,2478.98 924.81,2460.27 850.00,2435.33
             726.49,2394.16 605.14,2330.63 501.00,2252.53
             387.36,2167.29 293.24,2068.43 213.34,1951.00
             119.40,1812.92 53.82,1652.89 22.20,1489.00
             14.51,1449.18 8.86,1409.32 4.83,1369.00
             4.83,1369.00 1.91,1333.00 1.91,1333.00
             1.91,1333.00 1.00,1319.00 1.00,1319.00
             1.00,1319.00 0.00,1303.00 0.00,1303.00
             0.00,1303.00 0.00,1194.00 0.00,1194.00
             0.00,1194.00 1.00,1176.00 1.00,1176.00
             1.00,1176.00 1.91,1166.00 1.91,1166.00
             1.91,1166.00 3.83,1141.00 3.83,1141.00
             3.83,1141.00 13.58,1060.00 13.58,1060.00
             29.20,959.34 55.99,861.98 95.42,768.00
             153.91,628.63 234.00,504.65 337.09,394.00
             337.09,394.00 350.96,380.00 350.96,380.00
             350.96,380.00 360.01,370.00 360.01,370.00
             360.01,370.00 381.00,349.96 381.00,349.96
             381.00,349.96 418.00,315.17 418.00,315.17
             537.77,207.00 686.64,121.22 839.00,68.34
             918.88,40.62 1005.11,20.00 1089.00,9.28
             1089.00,9.28 1158.00,2.17 1158.00,2.17
             1158.00,2.17 1187.00,0.11 1187.00,0.11
             1187.00,0.11 1215.00,0.11 1215.00,0.11 Z
           M 1190.00,315.09
           C 1190.00,315.09 1130.00,321.28 1130.00,321.28
             1078.76,328.03 1026.35,339.68 977.00,355.02
             863.29,390.37 755.05,448.98 663.00,524.42
             663.00,524.42 613.00,568.91 613.00,568.91
             613.00,568.91 584.04,597.00 584.04,597.00
             505.91,678.69 445.52,768.64 399.86,872.00
             363.28,954.81 337.47,1048.95 327.84,1139.00
             327.84,1139.00 323.91,1181.00 323.91,1181.00
             323.91,1181.00 323.00,1193.00 323.00,1193.00
             323.00,1193.00 323.00,1207.00 323.00,1207.00
             323.00,1207.00 322.00,1222.00 322.00,1222.00
             322.00,1222.00 322.00,1262.00 322.00,1262.00
             322.00,1262.00 323.00,1277.00 323.00,1277.00
             323.00,1277.00 323.00,1298.00 323.00,1298.00
             323.00,1298.00 323.96,1309.00 323.96,1309.00
             325.45,1343.20 330.50,1377.29 336.58,1411.00
             357.12,1524.90 400.23,1637.73 461.42,1736.00
             519.33,1828.98 590.48,1908.14 676.00,1976.55
             753.75,2038.75 852.89,2092.68 947.00,2125.34
             1007.88,2146.47 1068.10,2160.87 1132.00,2169.28
             1132.00,2169.28 1181.00,2175.00 1181.00,2175.00
             1181.00,2175.00 1189.00,2175.00 1189.00,2175.00
             1189.00,2175.00 1199.00,2176.00 1199.00,2176.00
             1199.00,2176.00 1306.00,2176.00 1306.00,2176.00
             1306.00,2176.00 1318.00,2174.96 1318.00,2174.96
             1318.00,2174.96 1328.00,2174.96 1328.00,2174.96
             1328.00,2174.96 1361.00,2171.16 1361.00,2171.16
             1410.40,2165.88 1462.22,2155.19 1510.00,2141.57
             1623.85,2109.12 1730.30,2054.58 1824.00,1982.35
             1824.00,1982.35 1883.00,1932.83 1883.00,1932.83
             1883.00,1932.83 1897.00,1919.09 1897.00,1919.09
             1897.00,1919.09 1906.00,1910.99 1906.00,1910.99
             1906.00,1910.99 1925.04,1891.00 1925.04,1891.00
             1925.04,1891.00 1939.91,1876.00 1939.91,1876.00
             1939.91,1876.00 1965.58,1847.00 1965.58,1847.00
             2038.96,1760.13 2095.22,1661.04 2133.31,1554.00
             2155.06,1492.89 2169.82,1429.27 2178.28,1365.00
             2180.93,1344.90 2183.97,1324.27 2184.00,1304.00
             2184.00,1304.00 2185.00,1287.00 2185.00,1287.00
             2185.00,1287.00 2185.00,1203.00 2185.00,1203.00
             2185.00,1203.00 2184.00,1181.00 2184.00,1181.00
             2184.00,1181.00 2183.09,1171.00 2183.09,1171.00
             2181.40,1146.88 2178.14,1122.91 2174.42,1099.00
             2164.45,1034.75 2147.29,971.61 2123.81,911.00
             2078.92,795.13 2012.97,690.84 1927.04,601.00
             1927.04,601.00 1906.00,579.01 1906.00,579.01
             1906.00,579.01 1897.00,570.91 1897.00,570.91
             1897.00,570.91 1876.00,551.17 1876.00,551.17
             1847.97,525.85 1817.96,502.35 1787.00,480.72
             1682.67,407.81 1561.80,356.16 1437.00,331.20
             1397.77,323.36 1345.69,315.46 1306.00,315.00
             1306.00,315.00 1292.00,314.00 1292.00,314.00
             1292.00,314.00 1266.00,314.00 1266.00,314.00
             1266.00,314.00 1249.00,313.14 1249.00,313.14
             1249.00,313.14 1219.00,313.14 1219.00,313.14
             1219.00,313.14 1190.00,315.09 1190.00,315.09 Z
           M 1246.00,431.21
           C 1246.00,431.21 1263.00,432.00 1263.00,432.00
             1263.00,432.00 1292.00,432.00 1292.00,432.00
             1292.00,432.00 1307.00,433.00 1307.00,433.00
             1351.19,433.51 1413.97,444.82 1457.00,456.12
             1545.77,479.42 1625.06,514.10 1702.00,564.34
             1864.25,670.28 1985.32,834.72 2038.42,1021.00
             2049.29,1059.12 2056.62,1094.80 2062.27,1134.00
             2062.27,1134.00 2068.09,1190.00 2068.09,1190.00
             2068.09,1190.00 2069.00,1200.00 2069.00,1200.00
             2069.00,1200.00 2069.00,1227.00 2069.00,1227.00
             2069.00,1227.00 2070.00,1250.00 2070.00,1250.00
             2070.00,1250.00 2069.00,1264.00 2069.00,1264.00
             2069.00,1264.00 2069.00,1290.00 2069.00,1290.00
             2069.00,1290.00 2068.09,1302.00 2068.09,1302.00
             2068.09,1302.00 2063.28,1351.00 2063.28,1351.00
             2057.16,1397.95 2047.03,1444.77 2032.98,1490.00
             1957.56,1732.64 1768.34,1929.14 1529.00,2014.31
             1472.02,2034.59 1408.14,2049.73 1348.00,2056.16
             1348.00,2056.16 1316.00,2059.09 1316.00,2059.09
             1316.00,2059.09 1306.00,2060.00 1306.00,2060.00
             1306.00,2060.00 1287.00,2061.00 1287.00,2061.00
             1287.00,2061.00 1226.00,2061.00 1226.00,2061.00
             1226.00,2061.00 1206.00,2060.00 1206.00,2060.00
             1206.00,2060.00 1196.00,2059.09 1196.00,2059.09
             1196.00,2059.09 1146.00,2054.15 1146.00,2054.15
             1090.12,2047.47 1029.83,2032.38 977.00,2013.05
             866.83,1972.76 771.83,1913.10 687.00,1831.96
             687.00,1831.96 661.91,1806.00 661.91,1806.00
             580.60,1718.72 519.15,1619.39 481.35,1506.00
             465.02,1457.01 453.46,1406.18 446.72,1355.00
             446.72,1355.00 440.96,1294.00 440.96,1294.00
             440.96,1294.00 440.00,1281.00 440.00,1281.00
             440.00,1281.00 440.00,1219.00 440.00,1219.00
             440.00,1219.00 441.00,1204.00 441.00,1204.00
             441.33,1175.16 445.15,1146.50 449.58,1118.00
             458.86,1058.19 474.78,999.09 497.60,943.00
             585.86,726.15 759.97,556.35 981.00,477.69
             1036.23,458.04 1093.92,444.93 1152.00,437.28
             1152.00,437.28 1202.00,432.17 1202.00,432.17
             1202.00,432.17 1216.00,431.21 1216.00,431.21
             1216.00,431.21 1246.00,431.21 1246.00,431.21 Z
           M 1263.00,672.00
           C 1263.00,672.00 1244.00,673.00 1244.00,673.00
             1244.00,673.00 1234.00,673.91 1234.00,673.91
             1198.70,676.34 1163.53,681.74 1129.00,689.65
             1013.68,716.08 905.61,773.36 819.00,853.91
             819.00,853.91 786.09,886.00 786.09,886.00
             688.71,990.52 626.11,1117.54 605.27,1259.00
             605.27,1259.00 599.91,1310.00 599.91,1310.00
             599.91,1310.00 599.00,1321.00 599.00,1321.00
             599.00,1321.00 598.00,1342.00 598.00,1342.00
             598.00,1342.00 598.00,1368.00 598.00,1368.00
             598.00,1368.00 599.00,1389.00 599.00,1389.00
             599.00,1389.00 599.91,1399.00 599.91,1399.00
             599.91,1399.00 605.73,1454.00 605.73,1454.00
             616.01,1525.30 637.38,1592.24 668.74,1657.00
             697.06,1715.46 736.31,1778.48 784.00,1822.91
             809.08,1846.27 850.02,1873.02 880.00,1890.42
             952.86,1932.71 1033.06,1962.46 1116.00,1977.42
             1143.89,1982.46 1171.75,1986.15 1200.00,1988.09
             1200.00,1988.09 1212.00,1989.00 1212.00,1989.00
             1212.00,1989.00 1300.00,1989.00 1300.00,1989.00
             1300.00,1989.00 1321.00,1988.00 1321.00,1988.00
             1334.23,1987.94 1380.39,1981.21 1395.00,1978.58
             1395.00,1978.58 1432.00,1971.00 1432.00,1971.00
             1432.00,1971.00 1432.00,1969.00 1432.00,1969.00
             1432.00,1969.00 1389.00,1969.00 1389.00,1969.00
             1389.00,1969.00 1368.00,1968.00 1368.00,1968.00
             1368.00,1968.00 1358.00,1967.09 1358.00,1967.09
             1323.99,1964.76 1290.59,1960.48 1257.00,1954.42
             1218.67,1947.51 1180.94,1937.65 1144.00,1925.33
             1059.52,1897.17 980.50,1854.94 915.00,1793.91
             915.00,1793.91 898.00,1777.00 898.00,1777.00
             898.00,1777.00 878.17,1757.00 878.17,1757.00
             846.44,1721.93 819.79,1684.33 796.86,1643.00
             761.75,1579.71 735.38,1498.13 728.17,1426.00
             728.17,1426.00 725.91,1395.00 725.91,1395.00
             725.91,1395.00 725.00,1383.00 725.00,1383.00
             725.00,1383.00 725.00,1339.00 725.00,1339.00
             725.00,1339.00 725.96,1326.00 725.96,1326.00
             727.23,1296.77 731.10,1267.62 737.42,1239.00
             758.55,1143.34 804.49,1055.59 870.17,983.00
             870.17,983.00 888.00,965.00 888.00,965.00
             930.09,922.91 978.06,887.57 1031.00,860.26
             1114.15,817.36 1206.91,798.00 1300.00,798.00
             1300.00,798.00 1300.00,756.00 1300.00,756.00
             1300.00,756.00 1301.00,739.00 1301.00,739.00
             1301.00,739.00 1301.00,672.00 1301.00,672.00
             1301.00,672.00 1263.00,672.00 1263.00,672.00 Z
           M 1491.00,870.31
           C 1458.88,858.84 1440.51,853.50 1407.00,846.80
             1389.86,843.37 1359.96,838.20 1343.00,838.00
             1343.00,838.00 1330.00,838.00 1330.00,838.00
             1330.00,838.00 1315.00,837.00 1315.00,837.00
             1315.00,837.00 1268.00,837.00 1268.00,837.00
             1268.00,837.00 1212.00,843.59 1212.00,843.59
             1150.94,853.83 1103.18,871.09 1048.00,898.75
             1003.23,921.19 956.30,956.70 921.00,992.00
             921.00,992.00 902.17,1011.00 902.17,1011.00
             866.20,1050.76 835.70,1095.49 812.78,1144.00
             744.11,1289.34 743.23,1458.92 810.31,1605.00
             834.25,1657.14 867.01,1705.06 906.09,1747.00
             964.30,1809.48 1052.69,1866.50 1133.00,1895.95
             1168.41,1908.93 1205.07,1917.82 1242.00,1925.20
             1309.72,1938.74 1378.09,1945.20 1447.00,1946.00
             1447.00,1946.00 1461.00,1947.00 1461.00,1947.00
             1461.00,1947.00 1487.00,1947.00 1487.00,1947.00
             1497.57,1946.98 1502.33,1944.07 1512.00,1940.42
             1512.00,1940.42 1542.00,1928.80 1542.00,1928.80
             1578.45,1914.22 1611.70,1898.68 1645.00,1877.68
             1653.27,1872.47 1673.71,1859.86 1680.00,1854.00
             1680.00,1854.00 1643.00,1858.73 1643.00,1858.73
             1643.00,1858.73 1568.00,1867.09 1568.00,1867.09
             1568.00,1867.09 1556.00,1868.00 1556.00,1868.00
             1556.00,1868.00 1534.00,1869.00 1534.00,1869.00
             1534.00,1869.00 1503.00,1869.00 1503.00,1869.00
             1503.00,1869.00 1487.00,1868.00 1487.00,1868.00
             1487.00,1868.00 1474.00,1868.00 1474.00,1868.00
             1474.00,1868.00 1455.00,1867.00 1455.00,1867.00
             1455.00,1867.00 1432.00,1865.17 1432.00,1865.17
             1432.00,1865.17 1404.00,1862.83 1404.00,1862.83
             1404.00,1862.83 1346.00,1854.42 1346.00,1854.42
             1314.26,1848.70 1282.75,1841.49 1252.00,1831.66
             1136.60,1794.77 1030.98,1723.88 962.34,1623.00
             910.24,1546.42 883.92,1458.44 885.00,1366.00
             885.00,1366.00 885.96,1355.00 885.96,1355.00
             889.42,1275.54 917.21,1197.66 963.43,1133.00
             988.97,1097.26 1019.79,1066.79 1055.00,1040.63
             1091.55,1013.48 1134.56,992.53 1178.00,979.02
             1247.45,957.44 1322.20,955.79 1393.00,971.42
             1417.68,976.87 1439.28,984.78 1463.00,993.00
             1463.00,993.00 1471.26,976.00 1471.26,976.00
             1471.26,976.00 1487.31,942.00 1487.31,942.00
             1487.31,942.00 1516.00,880.00 1516.00,880.00
             1516.00,880.00 1491.00,870.31 1491.00,870.31 Z
           M 1633.00,1169.00
           C 1616.67,1144.51 1603.88,1128.88 1583.00,1108.00
             1535.39,1060.39 1475.94,1026.43 1411.00,1008.85
             1390.09,1003.19 1364.61,997.25 1343.00,997.00
             1343.00,997.00 1328.00,996.00 1328.00,996.00
             1328.00,996.00 1282.00,996.00 1282.00,996.00
             1269.29,996.02 1244.10,1000.78 1231.00,1003.40
             1176.15,1014.37 1125.07,1036.65 1080.00,1069.88
             1007.69,1123.21 955.42,1199.82 933.63,1287.00
             929.58,1303.19 923.03,1332.87 923.00,1349.00
             923.00,1349.00 923.00,1359.00 923.00,1359.00
             923.00,1359.00 922.00,1374.00 922.00,1374.00
             922.00,1374.00 923.00,1417.00 923.00,1417.00
             923.14,1428.31 928.00,1452.34 930.58,1464.00
             942.07,1516.02 963.76,1563.40 994.28,1607.00
             1008.35,1627.09 1025.10,1648.29 1042.04,1666.00
             1099.45,1726.03 1183.61,1779.41 1262.00,1807.31
             1287.27,1816.30 1309.82,1822.25 1336.00,1827.79
             1384.89,1838.12 1454.05,1844.92 1504.00,1845.00
             1504.00,1845.00 1521.00,1846.00 1521.00,1846.00
             1521.00,1846.00 1543.00,1846.00 1543.00,1846.00
             1543.00,1846.00 1560.00,1845.00 1560.00,1845.00
             1560.00,1845.00 1576.00,1845.00 1576.00,1845.00
             1576.00,1845.00 1594.00,1844.00 1594.00,1844.00
             1594.00,1844.00 1604.00,1843.09 1604.00,1843.09
             1630.48,1841.28 1656.76,1838.82 1683.00,1834.41
             1683.00,1834.41 1719.00,1827.49 1719.00,1827.49
             1721.97,1826.23 1727.27,1821.61 1730.00,1819.39
             1730.00,1819.39 1752.00,1800.28 1752.00,1800.28
             1772.70,1782.07 1791.74,1762.48 1810.17,1742.00
             1816.77,1734.67 1827.73,1722.87 1833.00,1715.00
             1833.00,1715.00 1769.00,1720.83 1769.00,1720.83
             1769.00,1720.83 1706.00,1726.09 1706.00,1726.09
             1706.00,1726.09 1698.00,1727.02 1698.00,1727.02
             1698.00,1727.02 1688.00,1727.02 1688.00,1727.02
             1688.00,1727.02 1678.00,1728.04 1678.00,1728.04
             1678.00,1728.04 1666.00,1728.04 1666.00,1728.04
             1666.00,1728.04 1654.00,1729.00 1654.00,1729.00
             1654.00,1729.00 1640.00,1729.00 1640.00,1729.00
             1640.00,1729.00 1625.00,1730.00 1625.00,1730.00
             1625.00,1730.00 1551.00,1730.00 1551.00,1730.00
             1551.00,1730.00 1529.00,1729.00 1529.00,1729.00
             1529.00,1729.00 1518.00,1728.04 1518.00,1728.04
             1518.00,1728.04 1460.00,1723.16 1460.00,1723.16
             1383.34,1714.96 1305.86,1696.79 1238.00,1659.14
             1211.03,1644.18 1185.47,1626.74 1162.00,1606.73
             1109.51,1561.97 1067.44,1503.07 1052.42,1435.00
             1047.99,1414.88 1046.76,1394.54 1047.00,1374.00
             1047.00,1374.00 1047.83,1365.00 1047.83,1365.00
             1049.07,1352.06 1050.47,1339.74 1053.35,1327.00
             1072.36,1243.01 1131.86,1172.51 1212.00,1140.45
             1236.25,1130.75 1270.88,1122.04 1297.00,1122.00
             1297.00,1122.00 1324.00,1122.00 1324.00,1122.00
             1338.11,1122.17 1357.23,1125.68 1371.00,1129.13
             1411.68,1139.29 1452.17,1159.37 1483.00,1188.09
             1498.03,1202.09 1511.93,1217.45 1524.12,1234.00
             1524.12,1234.00 1533.67,1248.00 1533.67,1248.00
             1535.02,1249.94 1536.64,1252.60 1539.09,1253.19
             1541.48,1253.78 1545.79,1251.70 1548.00,1250.69
             1548.00,1250.69 1569.00,1240.25 1569.00,1240.25
             1569.00,1240.25 1626.00,1211.75 1626.00,1211.75
             1626.00,1211.75 1651.00,1199.00 1651.00,1199.00
             1647.09,1189.98 1638.61,1177.42 1633.00,1169.00 Z
           M 1680.00,1853.00
           C 1680.00,1853.00 1681.00,1854.00 1681.00,1854.00
             1681.00,1854.00 1681.00,1853.00 1681.00,1853.00
             1681.00,1853.00 1680.00,1853.00 1680.00,1853.00 Z" />
</svg>
