<?xml version="1.0" encoding="utf-8"?>
<!-- Generator: Adobe Illustrator 19.0.0, SVG Export Plug-In . SVG Version: 6.00 Build 0)  -->
<svg version="1.1" id="Layer_1" xmlns="http://www.w3.org/2000/svg" xmlns:xlink="http://www.w3.org/1999/xlink" x="0px" y="0px"
	 viewBox="-233 363 300 300" style="enable-background:new -233 363 300 300;" xml:space="preserve">
<style type="text/css">
	.st0{fill:#c0392b;}
	.st1{fill:#FFFFFF;}
</style>
<g>
	<circle class="st0" cx="-83" cy="513" r="150"/>
	<path class="st1" d="M-184.4,473c2.4,0,4.5,0.8,6,2.4c1.6,1.6,2.4,3.6,2.4,6s-0.8,4.5-2.4,6.1c-1.6,1.6-3.6,2.5-6,2.5
		c-2.4,0-4.5-0.8-6.1-2.5c-1.6-1.6-2.5-3.7-2.5-6.1s0.8-4.4,2.5-6C-188.9,473.8-186.9,473-184.4,473z M-191,497h15v55h-15V497z
		 M-134.8,476c8.9,0,15.8,1.7,20.7,5.2c4.9,3.5,7.3,8.4,7.3,14.8c0,4.7-1.3,8.5-3.9,11.4s-6.4,4.8-11.2,5.6
		c5.7,0.7,10.1,2.5,13.2,5.4c3.1,2.9,4.7,6.9,4.7,12.2c0,6.7-2.6,11.9-7.7,15.7s-12.4,5.7-21.7,5.7H-164v-76H-134.8L-134.8,476z
		 M-148,507h14.1c3.7,0,6.7-0.8,8.8-2.3c2.1-1.5,3.2-3.6,3.2-6.2s-1.1-4.7-3.2-6.2s-5-2.3-8.8-2.3H-148V507z M-148,540h14.4
		c4,0,7.1-0.8,9.3-2.5s3.3-3.9,3.3-6.9c0-3.1-1.1-5.5-3.3-7.1c-2.2-1.7-5.3-2.5-9.2-2.5H-148V540L-148,540z M-104,476h60v14h-21.9
		v62h-16.2v-62H-104V476z M-40,476h60v14H-1.9v62h-16.2v-62H-40V476z"/>
</g>
</svg>
