<?xml version="1.0" encoding="utf-8"?>
<!-- Generator: Adobe Illustrator 19.0.0, SVG Export Plug-In . SVG Version: 6.00 Build 0)  -->
<svg version="1.1" id="Layer_1" xmlns="http://www.w3.org/2000/svg" xmlns:xlink="http://www.w3.org/1999/xlink" x="0px" y="0px"
	 viewBox="-233 363 300 300" style="enable-background:new -233 363 300 300;" xml:space="preserve">
<style type="text/css">
	.st0{fill:#c0392b;}
	.st1{fill:#FFFFFF;}
</style>
<title>iDEFI</title>
<desc>Created with Sketch.</desc>
<g id="Page-1">
	<g id="iDEFI">
		<g id="iCEX">
			<g id="Oval-Copy">
				<circle class="st0" cx="-83" cy="513" r="150"/>
			</g>
		</g>
		<path class="st1" d="M-189,492c2.3,0,4.2-0.8,5.7-2.3c1.5-1.5,2.3-3.5,2.3-5.7s-0.8-4.2-2.3-5.7c-1.5-1.5-3.4-2.3-5.7-2.3
			c-2.3,0-4.2,0.8-5.7,2.3c-1.5,1.5-2.3,3.4-2.3,5.7s0.8,4.2,2.3,5.7C-193.2,491.2-191.2,492-189,492z M-182,551v-53h-14v53H-182z
			 M-145.1,551c7.2,0,13.5-1.5,19-4.6c5.5-3.1,9.7-7.4,12.7-12.9c3-5.5,4.5-11.8,4.5-18.9s-1.5-13.4-4.5-18.9
			c-3-5.5-7.2-9.8-12.7-12.9s-11.8-4.6-19-4.6l0,0H-170v73H-145.1z M-145.2,538h-9.8v-47h9.8c6.7,0,11.9,2.1,15.6,6.4
			c3.7,4.3,5.6,10,5.6,17.1s-1.9,12.8-5.6,17.1C-133.3,535.9-138.5,538-145.2,538L-145.2,538z M-49,551v-13.5h-33.7v-16.9h26.5
			v-12.8h-26.5v-16.4h32.6V478H-98v73H-49z M-24.4,551v-29.6H2.2v-12.8h-26.6v-17.1H8V478h-48v73H-24.4z M32,551v-73H17v73H32z"/>
	</g>
</g>
</svg>
