<?xml version="1.0" encoding="utf-8"?>
<!-- Generator: Adobe Illustrator 19.0.0, SVG Export Plug-In . SVG Version: 6.00 Build 0)  -->
<svg version="1.1" id="Main" xmlns="http://www.w3.org/2000/svg" xmlns:xlink="http://www.w3.org/1999/xlink" x="0px" y="0px"
	 viewBox="0 0 300 300" style="enable-background:new 0 0 300 300;" xml:space="preserve">
<style type="text/css">
	.st0{fill:#45992F;}
	.st1{fill:#FFFFFF;}
</style>
<g>
	<circle class="st0" cx="150" cy="150" r="150"/>
</g>
<g id="Logo">
	<g id="XMLID_1_">
		<polygon class="st1" points="175.5,101.5 165.5,101.5 165.5,198.5 175.5,198.5 175.5,101.5 		"/>
	</g>
	<g id="XMLID_2_">
		<path class="st1" d="M145.1,111.5v77.1H68v-77.1H145.1 M155.1,101.5H58v97.1h97.1V101.5L155.1,101.5z"/>
	</g>
</g>
<g id="Text">
	<path class="st1" d="M186.6,184.9c0-4.2,0.8-7.4,2.5-9.7c1.6-2.3,4-3.4,7-3.4c2.2,0,4,0.6,5.4,1.8s2.3,3,2.7,5.2
		c0.3-2.7,1.2-4.7,2.6-6.2c1.4-1.5,3.3-2.2,5.7-2.2c3.1,0,5.6,1.2,7.4,3.6c1.8,2.4,2.7,5.8,2.7,10.2v14.3h-35.9V184.9L186.6,184.9z
		 M201.3,190.8v-6.2c0-1.6-0.4-2.9-1.2-3.8s-1.8-1.4-3.2-1.4s-2.4,0.5-3.2,1.4c-0.8,0.9-1.2,2.2-1.2,3.8v6.2H201.3z M216.3,190.8
		v-6.7c0-1.8-0.4-3.3-1.2-4.3s-1.9-1.5-3.3-1.5c-1.5,0-2.6,0.5-3.4,1.5c-0.8,1-1.2,2.4-1.2,4.3v6.7L216.3,190.8L216.3,190.8z
		 M222.4,165.4h-35.9v-7l22.6-15.2h-22.6v-7.6h35.9v7l-22.6,15.2h22.6V165.4z M186.6,115.9c0-4.2,0.8-7.4,2.5-9.7
		c1.6-2.3,4-3.4,7-3.4c2.2,0,4,0.6,5.4,1.8c1.4,1.2,2.3,3,2.7,5.2c0.3-2.7,1.2-4.7,2.6-6.2c1.4-1.5,3.3-2.2,5.7-2.2
		c3.1,0,5.6,1.2,7.4,3.6c1.8,2.4,2.7,5.8,2.7,10.2v14.3h-35.9V115.9z M201.3,121.8v-6.2c0-1.6-0.4-2.9-1.2-3.8s-1.8-1.4-3.2-1.4
		s-2.4,0.5-3.2,1.4s-1.2,2.2-1.2,3.8v6.2H201.3z M216.3,121.8v-6.7c0-1.8-0.4-3.3-1.2-4.3c-0.8-1-1.9-1.5-3.3-1.5
		c-1.5,0-2.6,0.5-3.4,1.5c-0.8,1-1.2,2.4-1.2,4.3v6.7H216.3L216.3,121.8z"/>
</g>
</svg>
