<?xml version="1.0" encoding="utf-8"?>
<!-- Generator: Adobe Illustrator 19.0.0, SVG Export Plug-In . SVG Version: 6.00 Build 0)  -->
<svg version="1.1" id="XAU" xmlns="http://www.w3.org/2000/svg" xmlns:xlink="http://www.w3.org/1999/xlink" x="0px" y="0px"
	 viewBox="-233 363 300 300" style="enable-background:new -233 363 300 300;" xml:space="preserve">
<style type="text/css">
	.st0{fill:#234CAA;}
	.st1{fill:#FFFFFF;}
</style>
<g id="Main">
	<g>
		<circle class="st0" cx="-83" cy="513" r="150"/>
	</g>
	<g id="Logo">
		<g id="XMLID_1_">
			<polygon class="st1" points="-57.5,464.5 -67.5,464.5 -67.5,561.5 -57.5,561.5 			"/>
		</g>
		<g id="XMLID_2_">
			<path class="st1" d="M-87.9,474.5v77.1H-165v-77.1L-87.9,474.5 M-77.9,464.5H-175v97.1h97.1V464.5L-77.9,464.5z"/>
		</g>
	</g>
</g>
<g id="Currency">
	<path id="XAU_1_" class="st1" d="M-29,550.2l-15.6,10.9V552l10-6.9l-10-7v-8.2l15.6,10.9l16.3-11.4v9.1l-10.7,7.4l10.7,7.6v8.1
		L-29,550.2z M-12.7,528.4l-31.9-12.8v-9l31.9-12.7v8l-7,2.7V518l7,2.7V528.4L-12.7,528.4z M-25.2,516v-9.2l-12.1,4.6L-25.2,516
		L-25.2,516z M-44.6,485.7h18.5c2.6,0,4.5-0.5,5.8-1.6c1.3-1.1,2-2.8,2-5.2c0-2.4-0.7-4.1-2-5.2c-1.3-1.1-3.2-1.7-5.8-1.7h-18.5
		v-7.5h18.1c4.6,0,8,1.2,10.4,3.7c2.4,2.4,3.6,6,3.6,10.7s-1.2,8.2-3.6,10.7c-2.4,2.4-5.9,3.6-10.4,3.6h-18.1V485.7z"/>
</g>
</svg>
