<?xml version="1.0" encoding="utf-8"?>
<!-- Generator: Adobe Illustrator 19.0.0, SVG Export Plug-In . SVG Version: 6.00 Build 0)  -->
<svg version="1.1" id="Main" xmlns="http://www.w3.org/2000/svg" xmlns:xlink="http://www.w3.org/1999/xlink" x="0px" y="0px"
	 viewBox="0 0 300 300" style="enable-background:new 0 0 300 300;" xml:space="preserve">
<style type="text/css">
	.st0{fill:#3D2096;}
	.st1{fill:#FFFFFF;}
</style>
<g>
	<circle class="st0" cx="150" cy="150" r="150"/>
</g>
<g id="Logo">
	<g id="XMLID_1_">
		<polygon class="st1" points="175.5,101.5 165.5,101.5 165.5,198.5 175.5,198.5 175.5,101.5 		"/>
	</g>
	<g id="XMLID_2_">
		<path class="st1" d="M145.1,111.5v77.1H68v-77.1H145.1 M155.1,101.5H58v97.1h97.1V101.5L155.1,101.5z"/>
	</g>
</g>
<g id="Text">
	<g transform="rotate(-90 183.62 25.62)">
		<g>
			<path id="a" d="M10.6,63.4l12.5-34.1h8.8l12.4,34.1h-7.8l-2.6-7.5h-13l-2.6,7.5H10.6z M22.7,50.1h9l-4.5-13
				C27.2,37.1,22.7,50.1,22.7,50.1z M52.3,29.3v19.8c0,2.8,0.5,4.8,1.6,6.2c1.1,1.4,2.8,2.1,5.1,2.1c2.3,0,4-0.7,5.1-2.1
				c1.1-1.4,1.6-3.5,1.6-6.2V29.3H73v19.4c0,4.9-1.2,8.6-3.6,11.2c-2.4,2.6-5.9,3.8-10.4,3.8c-4.6,0-8.1-1.3-10.4-3.8
				c-2.4-2.6-3.6-6.3-3.6-11.2V29.3C45,29.3,52.3,29.3,52.3,29.3z M78.6,29.3h11.8c3.4,0,6.4,0.7,9,2.2c2.6,1.4,4.6,3.5,6,6
				c1.4,2.6,2.1,5.5,2.1,8.8s-0.7,6.3-2.1,8.8c-1.4,2.6-3.4,4.6-6,6c-2.6,1.4-5.6,2.2-9,2.2H78.6L78.6,29.3L78.6,29.3z M90.5,57.3
				c3.1,0,5.5-1,7.2-3c1.7-2,2.6-4.7,2.6-8s-0.9-6-2.6-8c-1.7-2-4.1-3-7.2-3H86v21.9H90.5z"/>
		</g>
		<g>
			<path id="a_1_" class="st1" d="M10.6,63.4l12.5-34.1h8.8l12.4,34.1h-7.8l-2.6-7.5h-13l-2.6,7.5H10.6z M22.7,50.1h9l-4.5-13
				C27.2,37.1,22.7,50.1,22.7,50.1z M52.3,29.3v19.8c0,2.8,0.5,4.8,1.6,6.2c1.1,1.4,2.8,2.1,5.1,2.1c2.3,0,4-0.7,5.1-2.1
				c1.1-1.4,1.6-3.5,1.6-6.2V29.3H73v19.4c0,4.9-1.2,8.6-3.6,11.2c-2.4,2.6-5.9,3.8-10.4,3.8c-4.6,0-8.1-1.3-10.4-3.8
				c-2.4-2.6-3.6-6.3-3.6-11.2V29.3C45,29.3,52.3,29.3,52.3,29.3z M78.6,29.3h11.8c3.4,0,6.4,0.7,9,2.2c2.6,1.4,4.6,3.5,6,6
				c1.4,2.6,2.1,5.5,2.1,8.8s-0.7,6.3-2.1,8.8c-1.4,2.6-3.4,4.6-6,6c-2.6,1.4-5.6,2.2-9,2.2H78.6L78.6,29.3L78.6,29.3z M90.5,57.3
				c3.1,0,5.5-1,7.2-3c1.7-2,2.6-4.7,2.6-8s-0.9-6-2.6-8c-1.7-2-4.1-3-7.2-3H86v21.9H90.5z"/>
		</g>
	</g>
</g>
</svg>
