<?xml version="1.0" encoding="utf-8"?>
<!-- Generator: Adobe Illustrator 19.0.0, SVG Export Plug-In . SVG Version: 6.00 Build 0)  -->
<svg version="1.1" id="Layer_1" xmlns="http://www.w3.org/2000/svg" xmlns:xlink="http://www.w3.org/1999/xlink" x="0px" y="0px"
	 viewBox="-233 363 300 300" style="enable-background:new -233 363 300 300;" xml:space="preserve">
<style type="text/css">
	.st0{fill:#3D2096;}
	.st1{fill:#FFFFFF;}
</style>
<g id="Main">
	<g>
		<circle class="st0" cx="-83" cy="513" r="150"/>
	</g>
	<g id="Logo">
		<g id="XMLID_1_">
			<polygon class="st1" points="-57.5,464.5 -67.5,464.5 -67.5,561.5 -57.5,561.5 			"/>
		</g>
		<g id="XMLID_2_">
			<path class="st1" d="M-87.9,474.5v77.1H-165v-77.1L-87.9,474.5 M-77.9,464.5H-175v97.1h97.1V464.5L-77.9,464.5z"/>
		</g>
	</g>
	<g id="Text">
		<path class="st1" d="M-47.7,545.8c0-4.5,0.9-8,2.7-10.5s4.3-3.7,7.5-3.7c2.4,0,4.3,0.7,5.8,2s2.4,3.2,2.9,5.7
			c0.4-2.9,1.3-5.1,2.8-6.7c1.5-1.6,3.5-2.4,6.2-2.4c3.4,0,6.1,1.3,8,3.9c1.9,2.6,2.9,6.2,2.9,11v15.5h-38.8L-47.7,545.8
			L-47.7,545.8z M-31.7,552.3v-6.7c0-1.8-0.4-3.2-1.3-4.2c-0.9-1-2-1.5-3.4-1.5s-2.6,0.5-3.4,1.5c-0.9,1-1.3,2.4-1.3,4.2v6.7H-31.7z
			 M-15.5,552.3V545c0-2-0.4-3.5-1.3-4.6s-2-1.6-3.5-1.6c-1.6,0-2.8,0.6-3.7,1.7s-1.3,2.6-1.3,4.6v7.2L-15.5,552.3L-15.5,552.3z
			 M-47.7,509c0-2.8,0.5-5.3,1.6-7.5s2.6-3.8,4.5-5c2-1.2,4.2-1.8,6.8-1.8c2.5,0,4.7,0.6,6.6,1.8c1.9,1.2,3.4,2.8,4.4,4.9l15-7.7
			v9.2l-13,6.5v7h13v8.3h-38.8L-47.7,509L-47.7,509z M-28.8,516.4v-6.8c0-2-0.5-3.5-1.6-4.7s-2.5-1.7-4.3-1.7s-3.3,0.6-4.4,1.7
			s-1.6,2.7-1.6,4.7v6.8H-28.8z M-8.9,489.2h-38.8v-8.3H-16v-15.4h7.2L-8.9,489.2L-8.9,489.2z"/>
	</g>
</g>
</svg>
