<?xml version="1.0" encoding="utf-8"?>
<!-- Generator: Adobe Illustrator 19.0.0, SVG Export Plug-In . SVG Version: 6.00 Build 0)  -->
<svg version="1.1" id="Layer_1" xmlns="http://www.w3.org/2000/svg" xmlns:xlink="http://www.w3.org/1999/xlink" x="0px" y="0px"
	 viewBox="-233 363 300 300" style="enable-background:new -233 363 300 300;" xml:space="preserve">
<style type="text/css">
	.st0{fill:#45992F;}
	.st1{fill:#FFFFFF;}
</style>
<g id="Main">
	<g>
		<circle class="st0" cx="-83" cy="513" r="150"/>
	</g>
	<g id="Logo">
		<g id="XMLID_1_">
			<polygon class="st1" points="-57.5,464.5 -67.5,464.5 -67.5,561.5 -57.5,561.5 			"/>
		</g>
		<g id="XMLID_2_">
			<path class="st1" d="M-87.9,474.5v77.1H-165v-77.1L-87.9,474.5 M-77.9,464.5H-175v97.1h97.1V464.5L-77.9,464.5z"/>
		</g>
	</g>
	<path class="st1" d="M-47.6,546.9c0-4.5,0.9-7.9,2.6-10.4c1.8-2.5,4.3-3.7,7.5-3.7c2.4,0,4.3,0.7,5.8,2c1.5,1.3,2.4,3.2,2.9,5.6
		c0.4-2.9,1.3-5.1,2.7-6.6c1.5-1.6,3.5-2.3,6.2-2.3c3.4,0,6,1.3,7.9,3.8s2.9,6.2,2.9,10.9v15.3h-38.5V546.9z M-31.7,553.2v-6.6
		c0-1.8-0.4-3.1-1.3-4.1c-0.8-1-2-1.5-3.4-1.5c-1.4,0-2.6,0.5-3.4,1.5s-1.3,2.4-1.3,4.1v6.6H-31.7z M-15.6,553.2v-7.1
		c0-2-0.4-3.5-1.3-4.6c-0.8-1.1-2-1.6-3.5-1.6c-1.6,0-2.8,0.5-3.7,1.6c-0.9,1.1-1.3,2.6-1.3,4.6v7.1L-15.6,553.2L-15.6,553.2z
		 M-47.6,530.8v-30.5h7.1v11.1h31.4v8.2h-31.4v11.1H-47.6L-47.6,530.8z M-28.3,500c-3.9,0-7.4-0.8-10.3-2.3c-3-1.5-5.2-3.7-6.8-6.5
		c-1.6-2.8-2.4-6.2-2.4-10c0-3,0.6-5.7,1.8-8.1c1.2-2.4,2.8-4.3,4.9-5.8s4.6-2.3,7.4-2.6v8.2c-2.2,0.5-3.9,1.5-5.2,3
		s-1.9,3.4-1.9,5.7c0,3.1,1.2,5.5,3.5,7.3s5.4,2.7,9.1,2.7c3.7,0,6.8-0.9,9.1-2.7s3.5-4.2,3.5-7.3c0-2.3-0.6-4.2-1.9-5.7
		c-1.3-1.5-3-2.5-5.2-3v-8.2c2.8,0.3,5.2,1.2,7.4,2.6s3.8,3.4,4.9,5.8c1.2,2.4,1.8,5.1,1.8,8.1c0,3.8-0.8,7.2-2.4,10s-3.9,5-6.8,6.5
		C-21,499.2-24.4,500-28.3,500z"/>
</g>
</svg>
