<?xml version="1.0" encoding="utf-8"?>
<!-- Generator: Adobe Illustrator 19.0.0, SVG Export Plug-In . SVG Version: 6.00 Build 0)  -->
<svg version="1.1" id="Layer_1" xmlns="http://www.w3.org/2000/svg" xmlns:xlink="http://www.w3.org/1999/xlink" x="0px" y="0px"
	 viewBox="-233 363 300 300" style="enable-background:new -233 363 300 300;" xml:space="preserve">
<style type="text/css">
	.st0{fill:#3D2096;}
	.st1{fill:#FFFFFF;}
</style>
<g id="Main">
	<g>
		<circle class="st0" cx="-83" cy="513" r="150"/>
	</g>
	<g id="Logo">
		<g id="XMLID_1_">
			<polygon class="st1" points="-57.5,464.5 -67.5,464.5 -67.5,561.5 -57.5,561.5 			"/>
		</g>
		<g id="XMLID_2_">
			<path class="st1" d="M-87.9,474.5v77.1H-165v-77.1L-87.9,474.5 M-77.9,464.5H-175v97.1h97.1V464.5L-77.9,464.5z"/>
		</g>
	</g>
</g>
<g id="Currency">
	<path class="st1" d="M-28.3,561.6c-3.5,0-6.5-0.7-9.1-2s-4.6-3.3-6-5.8c-1.4-2.5-2.1-5.5-2.1-8.9c0-2.7,0.5-5,1.6-7.1
		c1-2.1,2.5-3.8,4.4-5.1c1.9-1.3,4-2.1,6.5-2.3v7.3c-1.9,0.4-3.5,1.3-4.6,2.6c-1.1,1.3-1.7,3-1.7,5c0,2.7,1,4.9,3.1,6.5
		s4.7,2.4,8.1,2.4c3.3,0,6-0.8,8-2.4s3.1-3.7,3.1-6.5c0-2-0.6-3.7-1.7-5c-1.1-1.3-2.6-2.2-4.6-2.6v-7.3c2.5,0.3,4.6,1,6.5,2.3
		c1.9,1.3,3.3,3,4.4,5.1c1,2.1,1.6,4.5,1.6,7.1c0,3.4-0.7,6.3-2.1,8.9c-1.4,2.5-3.4,4.4-6,5.8C-21.8,560.9-24.9,561.6-28.3,561.6
		L-28.3,561.6z M-11.3,530.1l-34-12.4v-8.7l34-12.3v7.8l-7.4,2.6v12.9l7.4,2.6L-11.3,530.1L-11.3,530.1z M-24.6,518v-9l-12.9,4.5
		L-24.6,518z M-45.3,493.5v-11.8c0-3.4,0.7-6.4,2.2-9s3.4-4.6,6-6c2.6-1.4,5.5-2.1,8.8-2.1s6.2,0.7,8.8,2.1s4.6,3.4,6,6
		s2.2,5.6,2.2,9v11.8H-45.3z M-17.4,481.7c0-3.1-1-5.5-3-7.2s-4.6-2.5-7.9-2.5s-5.9,0.8-7.9,2.5c-2,1.7-3,4.1-3,7.2v4.5h21.8V481.7z
		"/>
</g>
</svg>
