<?xml version="1.0" encoding="utf-8"?>
<!-- Generator: Adobe Illustrator 19.0.0, SVG Export Plug-In . SVG Version: 6.00 Build 0)  -->
<svg version="1.1" id="Layer_1" xmlns="http://www.w3.org/2000/svg" xmlns:xlink="http://www.w3.org/1999/xlink" x="0px" y="0px"
	 viewBox="-233 363 300 300" style="enable-background:new -233 363 300 300;" xml:space="preserve">
<style type="text/css">
	.st0{fill:#52B167;}
	.st1{fill:#FFFFFF;}
</style>
<g id="Main">
	<g>
		<circle class="st0" cx="-83" cy="513" r="150"/>
	</g>
	<g id="Logo">
		<g id="XMLID_1_">
			<polygon class="st1" points="-57.5,464.5 -67.5,464.5 -67.5,561.5 -57.5,561.5 			"/>
		</g>
		<g id="XMLID_2_">
			<path class="st1" d="M-87.9,474.5v77.1H-165v-77.1L-87.9,474.5 M-77.9,464.5H-175v97.1h97.1V464.5L-77.9,464.5z"/>
		</g>
	</g>
</g>
<g id="Currency">
</g>
<path class="st1" d="M-28.3,561.6c-3.6,0-6.8-0.7-9.6-2.1c-2.7-1.4-4.9-3.4-6.4-6.1c-1.5-2.6-2.2-5.7-2.2-9.3c0-2.8,0.5-5.3,1.6-7.5
	c1.1-2.2,2.6-4,4.6-5.4c2-1.4,4.3-2.2,6.8-2.4v7.7c-2,0.4-3.6,1.4-4.8,2.8c-1.2,1.4-1.8,3.2-1.8,5.3c0,2.9,1.1,5.1,3.2,6.8
	c2.1,1.7,5,2.5,8.5,2.5c3.5,0,6.3-0.8,8.4-2.5c2.2-1.7,3.2-3.9,3.2-6.8c0-2.1-0.6-3.9-1.8-5.3c-1.2-1.4-2.8-2.3-4.8-2.8v-7.7
	c2.6,0.3,4.9,1.1,6.8,2.4c2,1.4,3.5,3.1,4.6,5.4c1.1,2.2,1.6,4.7,1.6,7.5c0,3.6-0.7,6.7-2.2,9.3c-1.5,2.6-3.6,4.7-6.4,6.1
	C-21.5,560.9-24.7,561.6-28.3,561.6L-28.3,561.6z M-46.2,524.4v-24h6.6v16.3h8v-13.3h6.3v13.3h8.3v-16.9h6.6v24.5L-46.2,524.4
	L-46.2,524.4z M-28.7,485.8L-46.2,497v-9.3l11.2-7l-11.2-7.2v-8.4l17.5,11.1l18.2-11.7v9.3l-12,7.6l12,7.8v8.3L-28.7,485.8
	L-28.7,485.8z"/>
</svg>
