<?xml version="1.0" encoding="utf-8"?>
<!-- Generator: Adobe Illustrator 19.0.0, SVG Export Plug-In . SVG Version: 6.00 Build 0)  -->
<svg version="1.1" id="Layer_1" xmlns="http://www.w3.org/2000/svg" xmlns:xlink="http://www.w3.org/1999/xlink" x="0px" y="0px"
	 viewBox="-233 363 300 300" style="enable-background:new -233 363 300 300;" xml:space="preserve">
<style type="text/css">
	.st0{fill:#3D2096;}
	.st1{fill:#FFFFFF;}
</style>
<g id="Main">
	<g>
		<circle class="st0" cx="-83" cy="513" r="150"/>
	</g>
	<g id="Logo">
		<g id="XMLID_1_">
			<polygon class="st1" points="-57.5,464.5 -67.5,464.5 -67.5,561.5 -57.5,561.5 			"/>
		</g>
		<g id="XMLID_2_">
			<path class="st1" d="M-87.9,474.5v77.1H-165v-77.1L-87.9,474.5 M-77.9,464.5H-175v97.1h97.1V464.5L-77.9,464.5z"/>
		</g>
	</g>
</g>
<g id="Currency">
	<path class="st1" d="M-28.5,561.6c-3.7,0-6.9-0.7-9.6-2.1c-2.8-1.4-4.9-3.5-6.4-6.1c-1.5-2.7-2.3-5.8-2.3-9.4
		c0-2.8,0.5-5.3,1.6-7.6c1.1-2.2,2.6-4,4.6-5.4c2-1.4,4.3-2.2,6.9-2.5v7.7c-2.1,0.4-3.7,1.4-4.9,2.8c-1.2,1.4-1.8,3.2-1.8,5.3
		c0,2.9,1.1,5.2,3.2,6.8c2.2,1.7,5,2.5,8.5,2.5c3.5,0,6.3-0.8,8.5-2.5c2.2-1.7,3.3-4,3.3-6.8c0-2.1-0.6-3.9-1.8-5.3
		c-1.2-1.4-2.8-2.4-4.9-2.8v-7.7c2.6,0.3,4.9,1.1,6.9,2.5c2,1.4,3.5,3.2,4.6,5.4s1.6,4.7,1.6,7.6c0,3.6-0.8,6.7-2.3,9.4
		c-1.5,2.7-3.6,4.7-6.4,6.1C-21.6,560.9-24.8,561.6-28.5,561.6L-28.5,561.6z"/>
	<polygon class="st1" points="-46.5,524.1 -46.5,516.4 -32,516.4 -32,502.1 -46.5,502.1 -46.5,494.4 -10.5,494.4 -10.5,502.1 
		-25.4,502.1 -25.4,516.4 -10.5,516.4 -10.5,524.1 	"/>
	<polygon class="st1" points="-46.5,488.2 -46.5,464.5 -39.9,464.5 -39.9,480.5 -31.4,480.5 -31.4,467.4 -25.1,467.4 -25.1,480.5 
		-10.5,480.5 -10.5,488.2 -46.5,488.2 	"/>
</g>
</svg>
