<?xml version="1.0" encoding="utf-8"?>
<!-- Generator: Adobe Illustrator 19.0.0, SVG Export Plug-In . SVG Version: 6.00 Build 0)  -->
<svg version="1.1" id="Layer_1" xmlns="http://www.w3.org/2000/svg" xmlns:xlink="http://www.w3.org/1999/xlink" x="0px" y="0px"
	 viewBox="-233 363 300 300" style="enable-background:new -233 363 300 300;" xml:space="preserve">
<style type="text/css">
	.st0{fill:#3D2096;}
	.st1{fill:#FFFFFF;}
</style>
<g id="Main">
	<g>
		<circle class="st0" cx="-83" cy="513" r="150"/>
	</g>
	<g id="Logo">
		<g id="XMLID_1_">
			<polygon class="st1" points="-57.5,464.5 -67.5,464.5 -67.5,561.5 -57.5,561.5 			"/>
		</g>
		<g id="XMLID_2_">
			<path class="st1" d="M-87.9,474.5v77.1H-165v-77.1L-87.9,474.5 M-77.9,464.5H-175v97.1h97.1V464.5L-77.9,464.5z"/>
		</g>
	</g>
</g>
<g id="Currency">
	<path class="st1" d="M-28.3,561.5c-3.4,0-6.4-0.7-9-2c-2.6-1.3-4.5-3.2-5.9-5.7c-1.4-2.5-2.1-5.4-2.1-8.7c0-2.6,0.5-4.9,1.5-7
		c1-2.1,2.5-3.7,4.3-5c1.8-1.3,4-2,6.4-2.3v7.2c-1.9,0.4-3.4,1.3-4.5,2.6c-1.1,1.3-1.6,3-1.6,4.9c0,2.7,1,4.8,3,6.3
		c2,1.6,4.6,2.3,7.9,2.3c3.2,0,5.9-0.8,7.9-2.3c2-1.6,3-3.7,3-6.3c0-2-0.5-3.6-1.6-4.9c-1.1-1.3-2.6-2.2-4.5-2.6v-7.2
		c2.4,0.3,4.6,1,6.4,2.3c1.8,1.3,3.3,2.9,4.3,5c1,2.1,1.5,4.4,1.5,7c0,3.3-0.7,6.2-2.1,8.7c-1.4,2.5-3.4,4.4-5.9,5.7
		C-21.9,560.9-24.9,561.5-28.3,561.5L-28.3,561.5z"/>
	<polygon class="st1" points="-11.6,526.7 -45,526.7 -45,520.2 -24,506 -45,506 -45,499 -11.6,499 -11.6,505.5 -32.7,519.7 
		-11.6,519.7 -11.6,526.7 	"/>
	<polygon class="st1" points="-45,496.1 -45,487.8 -31.3,480.3 -45,472.4 -45,464.5 -24,476.7 -11.6,476.7 -11.6,483.9 -24,483.9 
		-45,496.1 	"/>
</g>
</svg>
