<?xml version="1.0" encoding="utf-8"?>
<!-- Generator: Adobe Illustrator 19.0.0, SVG Export Plug-In . SVG Version: 6.00 Build 0)  -->
<svg version="1.1" id="Layer_1" xmlns="http://www.w3.org/2000/svg" xmlns:xlink="http://www.w3.org/1999/xlink" x="0px" y="0px"
	 viewBox="-233 363 300 300" style="enable-background:new -233 363 300 300;" xml:space="preserve">
<style type="text/css">
	.st0{fill:#3D2096;}
	.st1{fill:#FFFFFF;}
</style>
<g id="Main">
	<g>
		<circle class="st0" cx="-83" cy="513" r="150"/>
	</g>
	<g id="Logo">
		<g id="XMLID_1_">
			<polygon class="st1" points="-57.5,464.5 -67.5,464.5 -67.5,561.5 -57.5,561.5 			"/>
		</g>
		<g id="XMLID_2_">
			<path class="st1" d="M-87.9,474.5v77.1H-165v-77.1L-87.9,474.5 M-77.9,464.5H-175v97.1h97.1V464.5L-77.9,464.5z"/>
		</g>
	</g>
</g>
<g id="Currency">
	<g transform="rotate(-90 183.12 25.12)">
		<g>
			<path id="a" d="M-353.3-205.2h25.1v6.9h-17.1v8.4h13.9v6.6h-13.9v8.6h17.7v6.9h-25.7L-353.3-205.2L-353.3-205.2z M-315.1-205.2
				v21.7c0,3,0.6,5.3,1.8,6.8c1.2,1.5,3,2.3,5.6,2.3s4.4-0.8,5.6-2.3c1.2-1.5,1.8-3.8,1.8-6.8v-21.7h8v21.2c0,5.3-1.3,9.4-3.9,12.2
				c-2.6,2.8-6.4,4.2-11.5,4.2c-5,0-8.8-1.4-11.4-4.2c-2.6-2.8-3.9-6.9-3.9-12.2v-21.2C-323.1-205.2-315.1-205.2-315.1-205.2z
				 M-271-205.2c2.7,0,5.1,0.5,7.2,1.5c2.1,1,3.7,2.5,4.8,4.4c1.1,1.9,1.7,4.1,1.7,6.6c0,2.4-0.6,4.5-1.7,6.3
				c-1.1,1.8-2.7,3.2-4.7,4.2l7.4,14.4h-8.9l-6.2-12.5h-6.8v12.5h-8v-37.4C-286.2-205.2-271-205.2-271-205.2z M-278.2-187h6.6
				c1.9,0,3.4-0.5,4.5-1.5c1.1-1,1.7-2.4,1.7-4.2c0-1.8-0.6-3.2-1.7-4.2c-1.1-1-2.6-1.5-4.5-1.5h-6.6V-187z"/>
		</g>
		<g>
			<path id="a_1_" class="st1" d="M-353.3-205.2h25.1v6.9h-17.1v8.4h13.9v6.6h-13.9v8.6h17.7v6.9h-25.7L-353.3-205.2L-353.3-205.2z
				 M-315.1-205.2v21.7c0,3,0.6,5.3,1.8,6.8c1.2,1.5,3,2.3,5.6,2.3s4.4-0.8,5.6-2.3c1.2-1.5,1.8-3.8,1.8-6.8v-21.7h8v21.2
				c0,5.3-1.3,9.4-3.9,12.2c-2.6,2.8-6.4,4.2-11.5,4.2c-5,0-8.8-1.4-11.4-4.2c-2.6-2.8-3.9-6.9-3.9-12.2v-21.2
				C-323.1-205.2-315.1-205.2-315.1-205.2z M-271-205.2c2.7,0,5.1,0.5,7.2,1.5c2.1,1,3.7,2.5,4.8,4.4c1.1,1.9,1.7,4.1,1.7,6.6
				c0,2.4-0.6,4.5-1.7,6.3c-1.1,1.8-2.7,3.2-4.7,4.2l7.4,14.4h-8.9l-6.2-12.5h-6.8v12.5h-8v-37.4C-286.2-205.2-271-205.2-271-205.2z
				 M-278.2-187h6.6c1.9,0,3.4-0.5,4.5-1.5c1.1-1,1.7-2.4,1.7-4.2c0-1.8-0.6-3.2-1.7-4.2c-1.1-1-2.6-1.5-4.5-1.5h-6.6V-187z"/>
		</g>
	</g>
</g>
</svg>
