<?xml version="1.0" encoding="utf-8"?>
<!-- Generator: Adobe Illustrator 19.0.0, SVG Export Plug-In . SVG Version: 6.00 Build 0)  -->
<svg version="1.1" xmlns="http://www.w3.org/2000/svg" xmlns:xlink="http://www.w3.org/1999/xlink" x="0px" y="0px"
	 viewBox="0 0 300 300" style="enable-background:new 0 0 300 300;" xml:space="preserve">
<style type="text/css">
	.st0{fill:#3D2096;}
	.st1{fill:#FFFFFF;}
	.st2{display:none;}
</style>
<g id="Main">
	<g>
		<circle class="st0" cx="150" cy="150" r="150"/>
	</g>
	<g id="Logo">
		<g id="XMLID_1_">
			<polygon class="st1" points="175.5,101.5 165.5,101.5 165.5,198.5 175.5,198.5 175.5,101.5 			"/>
		</g>
		<g id="XMLID_2_">
			<path class="st1" d="M145.1,111.5v77.1H68v-77.1H145.1 M155.1,101.5H58v97.1h97.1V101.5L155.1,101.5z"/>
		</g>
	</g>
	<g id="Text">
		<g id="GBP">
			<path class="st1" d="M204,198.5c-3.5,0-6.6-0.7-9.3-2.1c-2.7-1.4-4.7-3.4-6.2-6c-1.5-2.6-2.2-5.6-2.2-9.1c0-2.7,0.5-5.2,1.6-7.4
				c1.1-2.2,2.5-3.9,4.5-5.3c1.9-1.3,4.1-2.2,6.6-2.5v7.3c-1.9,0.5-3.5,1.4-4.6,2.8c-1.1,1.4-1.7,3.1-1.7,5.2c0,1.9,0.5,3.6,1.4,5
				c1,1.4,2.3,2.5,4,3.3c1.7,0.8,3.7,1.1,5.9,1.1c3.4,0,6.1-0.8,8.2-2.5c2.1-1.7,3.1-4,3.1-6.9c0-2.1-0.6-4-1.8-5.7
				c-1.2-1.7-2.9-2.6-5.2-3h-0.4v8.6H202V166h19.3v5.1L217,172c1.4,1,2.5,2.4,3.3,4.1c0.9,1.7,1.3,3.7,1.3,6c0,3.3-0.7,6.1-2.2,8.6
				c-1.5,2.5-3.5,4.4-6.2,5.8C210.6,197.9,207.5,198.5,204,198.5L204,198.5z"/>
			<path class="st1" d="M186.7,146.9c0-4,0.8-7.1,2.4-9.4c1.6-2.2,3.8-3.3,6.7-3.3c2.1,0,3.9,0.6,5.2,1.8c1.3,1.2,2.2,2.9,2.6,5
				c0.3-2.6,1.2-4.6,2.5-6c1.3-1.4,3.2-2.1,5.5-2.1c3,0,5.4,1.2,7.2,3.5c1.7,2.3,2.6,5.6,2.6,9.8v13.8h-34.7L186.7,146.9
				L186.7,146.9z"/>
			<path class="st0" d="M200.9,152.6v-5.9c0-1.6-0.4-2.8-1.1-3.7c-0.8-0.9-1.8-1.3-3.1-1.3c-1.3,0-2.3,0.4-3.1,1.3
				c-0.8,0.9-1.1,2.1-1.1,3.7v5.9H200.9z"/>
			<path class="st0" d="M215.4,152.6v-6.4c0-1.8-0.4-3.2-1.1-4.1c-0.8-1-1.8-1.5-3.2-1.5c-1.4,0-2.5,0.5-3.3,1.5
				c-0.8,1-1.2,2.4-1.2,4.1v6.4H215.4z"/>
			<path class="st1" d="M186.7,114c0-2.5,0.5-4.7,1.4-6.6c0.9-1.9,2.3-3.4,4-4.4c1.7-1,3.8-1.6,6.1-1.6c2.3,0,4.3,0.5,6.1,1.6
				c1.7,1,3.1,2.5,4,4.4c0.9,1.9,1.4,4.1,1.4,6.6v6.7h11.6v7.4h-34.6L186.7,114L186.7,114z"/>
			<path class="st0" d="M203.5,120.7v-6c0-1.7-0.5-3.1-1.4-4.2c-1-1-2.2-1.5-3.9-1.5c-1.6,0-3,0.5-3.9,1.5c-1,1-1.4,2.4-1.4,4.2v6
				H203.5L203.5,120.7z"/>
		</g>
	</g>
</g>
</svg>
