<?xml version="1.0" encoding="utf-8"?>
<!-- Generator: Adobe Illustrator 19.0.0, SVG Export Plug-In . SVG Version: 6.00 Build 0)  -->
<svg version="1.1" xmlns="http://www.w3.org/2000/svg" xmlns:xlink="http://www.w3.org/1999/xlink" x="0px" y="0px"
	 viewBox="-233 363 300 300" style="enable-background:new -233 363 300 300;" xml:space="preserve">
<style type="text/css">
	.st0{fill:#3D2096;}
	.st1{fill:#FFFFFF;}
</style>
<g id="Layer_1">
	<g id="Main">
		<g>
			<circle class="st0" cx="-83" cy="513" r="150"/>
		</g>
		<g id="Logo">
			<g id="XMLID_1_">
				<polygon class="st1" points="-57.5,464.5 -67.5,464.5 -67.5,561.5 -57.5,561.5 				"/>
			</g>
			<g id="XMLID_2_">
				<path class="st1" d="M-87.9,474.5v77.1H-165v-77.1L-87.9,474.5 M-77.9,464.5H-175v97.1h97.1V464.5L-77.9,464.5z"/>
			</g>
		</g>
	</g>
	<g id="Currency">
		<path class="st1" d="M-47.7,555.2v-8.3h38.9v8.3H-47.7z M-8.8,540.3h-38.9v-7.6l24.5-16.5h-24.5v-8.2h38.9v7.6l-24.5,16.5h24.5
			V540.3L-8.8,540.3z M-47.7,485.6c0-2.8,0.5-5.3,1.6-7.5c1.1-2.2,2.6-3.8,4.5-5c2-1.2,4.2-1.8,6.8-1.8c2.5,0,4.7,0.6,6.6,1.8
			c1.9,1.2,3.4,2.8,4.4,4.9l15-7.7v9.2l-13,6.5v7.1h13v8.3h-38.9V485.6z M-28.8,493.1v-6.8c0-2-0.5-3.5-1.6-4.7s-2.5-1.7-4.3-1.7
			c-1.9,0-3.3,0.6-4.4,1.7s-1.6,2.7-1.6,4.7v6.8H-28.8z"/>
	</g>
</g>
</svg>
