<?xml version="1.0" encoding="utf-8"?>
<!-- Generator: Adobe Illustrator 19.0.0, SVG Export Plug-In . SVG Version: 6.00 Build 0)  -->
<svg version="1.1" id="Layer_1" xmlns="http://www.w3.org/2000/svg" xmlns:xlink="http://www.w3.org/1999/xlink" x="0px" y="0px"
	 viewBox="-233 363 300 300" style="enable-background:new -233 363 300 300;" xml:space="preserve">
<style type="text/css">
	.st0{fill:#3D2096;}
	.st1{fill:#FFFFFF;}
</style>
<g id="Main">
	<g>
		<circle class="st0" cx="-83" cy="513" r="150"/>
	</g>
	<g id="Logo">
		<g id="XMLID_1_">
			<polygon class="st1" points="-57.5,464.5 -67.5,464.5 -67.5,561.5 -57.5,561.5 			"/>
		</g>
		<g id="XMLID_2_">
			<path class="st1" d="M-87.9,474.5v77.1H-165v-77.1L-87.9,474.5 M-77.9,464.5H-175v97.1h97.1V464.5L-77.9,464.5z"/>
		</g>
	</g>
</g>
<g id="Currency">
	<g>
		<g transform="rotate(-90 183 25)">
			<g>
				<path id="a" d="M-332.8-205.8v28.5c0,3.3-0.9,5.8-2.7,7.6c-1.8,1.8-4.3,2.7-7.6,2.7h-7.2v-7.2h4.6c1.6,0,2.8-0.4,3.5-1.1
					c0.7-0.8,1.1-2,1.1-3.6v-26.9L-332.8-205.8L-332.8-205.8z M-310.3-205.8c2.8,0,5.2,0.5,7.4,1.6c2.1,1.1,3.8,2.6,4.9,4.5
					c1.2,2,1.7,4.2,1.7,6.8c0,2.6-0.6,4.9-1.7,6.8c-1.2,1.9-2.8,3.4-4.9,4.5s-4.6,1.6-7.4,1.6h-7.5v13h-8.3v-38.9
					C-326.1-205.8-310.3-205.8-310.3-205.8z M-317.8-186.9h6.7c2,0,3.5-0.5,4.7-1.6c1.1-1.1,1.7-2.5,1.7-4.3c0-1.9-0.6-3.3-1.7-4.4
					c-1.1-1.1-2.7-1.6-4.7-1.6h-6.7V-186.9z M-296.7-205.8h9.7l8.7,15.9l9.2-15.9h9.3l-14.3,24.4v14.4h-8.3v-14.4
					C-282.4-181.3-296.7-205.8-296.7-205.8z"/>
			</g>
			<g>
				<path id="a_1_" class="st1" d="M-332.8-205.8v28.5c0,3.3-0.9,5.8-2.7,7.6c-1.8,1.8-4.3,2.7-7.6,2.7h-7.2v-7.2h4.6
					c1.6,0,2.8-0.4,3.5-1.1c0.7-0.8,1.1-2,1.1-3.6v-26.9L-332.8-205.8L-332.8-205.8z M-310.3-205.8c2.8,0,5.2,0.5,7.4,1.6
					c2.1,1.1,3.8,2.6,4.9,4.5c1.2,2,1.7,4.2,1.7,6.8c0,2.6-0.6,4.9-1.7,6.8c-1.2,1.9-2.8,3.4-4.9,4.5s-4.6,1.6-7.4,1.6h-7.5v13h-8.3
					v-38.9C-326.1-205.8-310.3-205.8-310.3-205.8z M-317.8-186.9h6.7c2,0,3.5-0.5,4.7-1.6c1.1-1.1,1.7-2.5,1.7-4.3
					c0-1.9-0.6-3.3-1.7-4.4c-1.1-1.1-2.7-1.6-4.7-1.6h-6.7V-186.9z M-296.7-205.8h9.7l8.7,15.9l9.2-15.9h9.3l-14.3,24.4v14.4h-8.3
					v-14.4C-282.4-181.3-296.7-205.8-296.7-205.8z"/>
			</g>
		</g>
	</g>
</g>
</svg>
