<?xml version="1.0" encoding="utf-8"?>
<!-- Generator: Adobe Illustrator 19.0.0, SVG Export Plug-In . SVG Version: 6.00 Build 0)  -->
<svg version="1.1" id="Layer_1" xmlns="http://www.w3.org/2000/svg" xmlns:xlink="http://www.w3.org/1999/xlink" x="0px" y="0px"
	 viewBox="-233 363 300 300" style="enable-background:new -233 363 300 300;" xml:space="preserve">
<style type="text/css">
	.st0{fill:#3D2096;}
	.st1{fill:#FFFFFF;}
</style>
<g id="Main">
	<g>
		<circle class="st0" cx="-83" cy="513" r="150"/>
	</g>
	<g id="Logo">
		<g id="XMLID_1_">
			<polygon class="st1" points="-57.5,464.5 -67.5,464.5 -67.5,561.5 -57.5,561.5 			"/>
		</g>
		<g id="XMLID_2_">
			<path class="st1" d="M-87.9,474.5v77.1H-165v-77.1L-87.9,474.5 M-77.9,464.5H-175v97.1h97.1V464.5L-77.9,464.5z"/>
		</g>
	</g>
</g>
<g id="Currency">
	<g>
		<g transform="rotate(-90 185.88 19.88)">
			<g>
				<path id="a_3_" d="M-355.8-209.5h6.5v13.7l12.2-13.7h7.9l-11.2,12.6l11.9,17.9h-7.8l-8.7-12.9l-4.3,4.8v8h-6.5
					C-355.8-179.1-355.8-209.5-355.8-209.5z M-313.6-209.6c2.2,0,4.2,0.4,5.9,1.2c1.7,0.8,3,2,3.9,3.6c0.9,1.5,1.4,3.3,1.4,5.4
					c0,1.9-0.5,3.7-1.4,5.2c-0.9,1.5-2.2,2.6-3.8,3.4l6,11.8h-7.2l-5.1-10.2h-5.5v10.2h-6.5v-30.5
					C-326.1-209.6-313.6-209.6-313.6-209.6z M-319.5-194.7h5.4c1.5,0,2.8-0.4,3.7-1.3c0.9-0.8,1.4-2,1.4-3.4c0-1.5-0.5-2.6-1.4-3.4
					c-0.9-0.8-2.1-1.3-3.7-1.3h-5.4L-319.5-194.7L-319.5-194.7z M-301.2-209.6l6.8,0l5.6,22.3l6-22.3h5.9l5.8,22.3l5.8-22.3h6.6
					l-8.5,30.5h-7.5l-5.3-20.3l-5.1,20.3h-7.5L-301.2-209.6L-301.2-209.6z"/>
			</g>
			<g>
				<path id="a_2_" class="st1" d="M-355.8-209.5h6.5v13.7l12.2-13.7h7.9l-11.2,12.6l11.9,17.9h-7.8l-8.7-12.9l-4.3,4.8v8h-6.5
					C-355.8-179.1-355.8-209.5-355.8-209.5z M-313.6-209.6c2.2,0,4.2,0.4,5.9,1.2c1.7,0.8,3,2,3.9,3.6c0.9,1.5,1.4,3.3,1.4,5.4
					c0,1.9-0.5,3.7-1.4,5.2c-0.9,1.5-2.2,2.6-3.8,3.4l6,11.8h-7.2l-5.1-10.2h-5.5v10.2h-6.5v-30.5
					C-326.1-209.6-313.6-209.6-313.6-209.6z M-319.5-194.7h5.4c1.5,0,2.8-0.4,3.7-1.3c0.9-0.8,1.4-2,1.4-3.4c0-1.5-0.5-2.6-1.4-3.4
					c-0.9-0.8-2.1-1.3-3.7-1.3h-5.4L-319.5-194.7L-319.5-194.7z M-301.2-209.6l6.8,0l5.6,22.3l6-22.3h5.9l5.8,22.3l5.8-22.3h6.6
					l-8.5,30.5h-7.5l-5.3-20.3l-5.1,20.3h-7.5L-301.2-209.6L-301.2-209.6z"/>
			</g>
		</g>
	</g>
</g>
</svg>
