<?xml version="1.0" encoding="utf-8"?>
<!-- Generator: Adobe Illustrator 19.0.0, SVG Export Plug-In . SVG Version: 6.00 Build 0)  -->
<svg version="1.1" id="LINK" xmlns="http://www.w3.org/2000/svg" xmlns:xlink="http://www.w3.org/1999/xlink" x="0px" y="0px"
	 viewBox="-233 363 300 300" style="enable-background:new -233 363 300 300;" xml:space="preserve">
<style type="text/css">
	.st0{fill:#45992F;}
	.st1{fill:#FFFFFF;}
</style>
<g id="Main">
	<g>
		<circle class="st0" cx="-83" cy="513" r="150"/>
	</g>
	<g id="Logo">
		<g id="XMLID_1_">
			<polygon class="st1" points="-57.5,464.5 -67.5,464.5 -67.5,561.5 -57.5,561.5 			"/>
		</g>
		<g id="XMLID_2_">
			<path class="st1" d="M-87.9,474.5v77.1H-165v-77.1L-87.9,474.5 M-77.9,464.5H-175v97.1h97.1V464.5L-77.9,464.5z"/>
		</g>
	</g>
</g>
<g id="Currency">
	<path id="LINK_1_" class="st1" d="M-12.2,541.9h-5.9v12.8h-26.3v6.9h32.3V541.9z M-12.2,531.2h-32.3v6.9h32.3V531.2z M-12.2,519
		h-20.3l20.3-13.7V499h-32.3v6.8h20.3l-20.3,13.7v6.3h32.3V519z M-12.2,486.6h-8.5l-5.1-4.6l13.6-9.2v-8.3l-18.9,12.6l-13.3-11.8
		v8.4l14.5,12.9h-14.5v6.9h32.2V486.6z"/>
</g>
</svg>
