<?xml version="1.0" encoding="utf-8"?>
<!-- Generator: Adobe Illustrator 19.0.0, SVG Export Plug-In . SVG Version: 6.00 Build 0)  -->
<svg version="1.1" id="LTC_1_" xmlns="http://www.w3.org/2000/svg" xmlns:xlink="http://www.w3.org/1999/xlink" x="0px" y="0px"
	 viewBox="-233 363 300 300" style="enable-background:new -233 363 300 300;" xml:space="preserve">
<style type="text/css">
	.st0{fill:#45992F;}
	.st1{fill:#FFFFFF;}
</style>
<g id="Main">
	<g>
		<circle class="st0" cx="-83" cy="513" r="150"/>
	</g>
	<g id="Logo">
		<g id="XMLID_1_">
			<polygon class="st1" points="-57.5,464.5 -67.5,464.5 -67.5,561.5 -57.5,561.5 			"/>
		</g>
		<g id="XMLID_2_">
			<path class="st1" d="M-87.9,474.5v77.1H-165v-77.1L-87.9,474.5 M-77.9,464.5H-175v97.1h97.1V464.5L-77.9,464.5z"/>
		</g>
	</g>
</g>
<g id="Currency">
	<path id="LTC" class="st1" d="M-8.8,532.1h-7v15.1h-31.1v8.2h38.1V532.1z M-8.8,516.3h-31.1v-11.1h-7v30.3h7v-11.1h31.1V516.3z
		 M-8.8,486.5c0-3-0.6-5.7-1.7-8.1s-2.8-4.3-4.9-5.8s-4.5-2.3-7.3-2.6l0,0v8.2c2.2,0.5,3.9,1.5,5.1,3c1.3,1.5,1.9,3.4,1.9,5.7
		c0,3.1-1.2,5.5-3.5,7.3c-2.3,1.8-5.3,2.7-9,2.7c-3.7,0-6.8-0.9-9-2.7c-2.3-1.8-3.4-4.2-3.4-7.3c0-2.3,0.6-4.2,1.9-5.7
		c1.3-1.5,3-2.5,5.1-3l0,0V470c-2.8,0.3-5.2,1.2-7.3,2.6s-3.7,3.4-4.9,5.8c-1.2,2.4-1.7,5.1-1.7,8.1c0,3.8,0.8,7.2,2.4,10
		c1.6,2.8,3.9,5,6.8,6.5c2.9,1.5,6.3,2.3,10.2,2.3s7.3-0.8,10.2-2.3c2.9-1.5,5.2-3.7,6.8-6.5S-8.8,490.3-8.8,486.5z"/>
</g>
</svg>
