<?xml version="1.0" encoding="utf-8"?>
<!-- Generator: Adobe Illustrator 19.0.0, SVG Export Plug-In . SVG Version: 6.00 Build 0)  -->
<svg version="1.1" id="MKR" xmlns="http://www.w3.org/2000/svg" xmlns:xlink="http://www.w3.org/1999/xlink" x="0px" y="0px"
	 viewBox="-233 363 300 300" style="enable-background:new -233 363 300 300;" xml:space="preserve">
<style type="text/css">
	.st0{fill:#45992F;}
	.st1{fill:#FFFFFF;}
</style>
<g id="Main">
	<g>
		<circle class="st0" cx="-83" cy="513" r="150"/>
	</g>
	<g id="Logo">
		<g id="XMLID_1_">
			<polygon class="st1" points="-57.5,464.5 -67.5,464.5 -67.5,561.5 -57.5,561.5 			"/>
		</g>
		<g id="XMLID_2_">
			<path class="st1" d="M-87.9,474.5v77.1H-165v-77.1L-87.9,474.5 M-77.9,464.5H-175v97.1h97.1V464.5L-77.9,464.5z"/>
		</g>
	</g>
</g>
<g id="Currency">
	<path id="MKR_1_" class="st1" d="M-44.3,561.6v-9l23.4-8.8l-23.4-8.6v-8.8h31.8v6.5h-21.3l21.3,8.3v5.5l-21.3,8.3h21.3v6.5H-44.3
		L-44.3,561.6z M-44.2,521v-6.8h14.3l-14.3-12.7v-8.3l13.1,11.7l18.7-12.5v8.2l-13.4,9.1l5,4.5h8.4v6.8H-44.2L-44.2,521z M-44.3,477
		c0-2.3,0.4-4.3,1.3-6.1c0.9-1.8,2.1-3.1,3.7-4.1c1.6-1,3.5-1.5,5.6-1.5c2,0,3.8,0.5,5.4,1.5c1.6,1,2.8,2.3,3.6,4l12.3-6.3v7.5
		l-10.7,5.3v5.8h10.7v6.8h-31.8V477z M-28.8,483.1v-5.6c0-1.6-0.4-2.9-1.3-3.8c-0.9-1-2.1-1.4-3.5-1.4c-1.5,0-2.7,0.5-3.6,1.4
		c-0.9,1-1.3,2.2-1.3,3.8v5.6H-28.8L-28.8,483.1z"/>
</g>
</svg>
