<?xml version="1.0" encoding="utf-8"?>
<!-- Generator: Adobe Illustrator 19.0.0, SVG Export Plug-In . SVG Version: 6.00 Build 0)  -->
<svg version="1.1" xmlns="http://www.w3.org/2000/svg" xmlns:xlink="http://www.w3.org/1999/xlink" x="0px" y="0px"
	 viewBox="-233 363 300 300" style="enable-background:new -233 363 300 300;" xml:space="preserve">
<style type="text/css">
	.st0{fill:#3D2096;}
	.st1{fill:#FFFFFF;}
</style>
<g id="Layer_1">
	<g id="Main">
		<g>
			<circle class="st0" cx="-83" cy="513" r="150"/>
		</g>
		<g id="Logo">
			<g id="XMLID_1_">
				<polygon class="st1" points="-57.5,464.5 -67.5,464.5 -67.5,561.5 -57.5,561.5 				"/>
			</g>
			<g id="XMLID_2_">
				<path class="st1" d="M-87.9,474.5v77.1H-165v-77.1L-87.9,474.5 M-77.9,464.5H-175v97.1h97.1V464.5L-77.9,464.5z"/>
			</g>
		</g>
	</g>
	<g id="Currency">
		<path class="st1" d="M-10.6,561.5H-46v-6.9l22.3-15H-46v-7.5h35.3v6.9l-22.3,15h22.3V561.5z M-46,527.4v-28.1h5l23.9,18.1v-18.6
			h6.5v29h-5l-23.9-18.1v17.7H-46z M-46,494.5v-12.3c0-3.5,0.7-6.7,2.2-9.4c1.5-2.7,3.6-4.8,6.3-6.3c2.7-1.5,5.7-2.2,9.2-2.2
			s6.5,0.7,9.2,2.2s4.8,3.5,6.3,6.3c1.5,2.7,2.2,5.8,2.2,9.4v12.3H-46z M-16.9,482.3c0-3.2-1-5.7-3.1-7.4c-2.1-1.8-4.8-2.6-8.3-2.6
			s-6.2,0.9-8.3,2.6c-2.1,1.8-3.1,4.2-3.1,7.4v4.7h22.7V482.3z"/>
	</g>
</g>
</svg>
