<?xml version="1.0" encoding="utf-8"?>
<!-- Generator: Adobe Illustrator 19.0.0, SVG Export Plug-In . SVG Version: 6.00 Build 0)  -->
<svg version="1.1" id="Layer_1" xmlns="http://www.w3.org/2000/svg" xmlns:xlink="http://www.w3.org/1999/xlink" x="0px" y="0px"
	 viewBox="-233 363 300 300" style="enable-background:new -233 363 300 300;" xml:space="preserve">
<style type="text/css">
	.st0{fill:#3D2096;}
	.st1{fill:#FFFFFF;}
</style>
<g id="Main">
	<g>
		<circle class="st0" cx="-83" cy="513" r="150"/>
	</g>
	<g id="Logo">
		<g id="XMLID_1_">
			<polygon class="st1" points="-57.5,464.5 -67.5,464.5 -67.5,561.5 -57.5,561.5 			"/>
		</g>
		<g id="XMLID_2_">
			<path class="st1" d="M-87.9,474.5v77.1H-165v-77.1L-87.9,474.5 M-77.9,464.5H-175v97.1h97.1V464.5L-77.9,464.5z"/>
		</g>
	</g>
</g>
<g id="Currency">
	<path class="st1" d="M-47.8,544.8c0-2.8,0.5-5.2,1.6-7.4c1.1-2.1,2.6-3.8,4.5-4.9c2-1.2,4.2-1.7,6.8-1.7s4.9,0.6,6.8,1.7
		c1.9,1.2,3.4,2.8,4.5,4.9c1.1,2.1,1.6,4.6,1.6,7.4v7.5h13v8.3h-38.9V544.8z M-28.9,552.2v-6.7c0-2-0.5-3.5-1.6-4.7
		c-1.1-1.1-2.5-1.7-4.3-1.7c-1.9,0-3.3,0.6-4.4,1.7c-1.1,1.1-1.6,2.7-1.6,4.7v6.7H-28.9L-28.9,552.2z M-8.9,526h-38.9v-8.3h31.7
		v-15.4h7.2L-8.9,526L-8.9,526z M-8.9,497.8h-38.9v-7.6l24.5-16.5h-24.5v-8.2h38.9v7.6l-24.5,16.5h24.5V497.8z"/>
</g>
</svg>
