<?xml version="1.0" encoding="utf-8"?>
<!-- Generator: Adobe Illustrator 19.0.0, SVG Export Plug-In . SVG Version: 6.00 Build 0)  -->
<svg version="1.1" id="Layer_1" xmlns="http://www.w3.org/2000/svg" xmlns:xlink="http://www.w3.org/1999/xlink" x="0px" y="0px"
	 viewBox="-233 363 300 300" style="enable-background:new -233 363 300 300;" xml:space="preserve">
<style type="text/css">
	.st0{fill:#3D2096;}
	.st1{fill:#FFFFFF;}
</style>
<g id="Main">
	<g>
		<circle class="st0" cx="-83" cy="513" r="150"/>
	</g>
	<g id="Logo">
		<g id="XMLID_1_">
			<polygon class="st1" points="-57.5,464.5 -67.5,464.5 -67.5,561.5 -57.5,561.5 			"/>
		</g>
		<g id="XMLID_2_">
			<path class="st1" d="M-87.9,474.5v77.1H-165v-77.1L-87.9,474.5 M-77.9,464.5H-175v97.1h97.1V464.5L-77.9,464.5z"/>
		</g>
	</g>
</g>
<g id="Currency">
	<path class="st1" d="M-46.6,546.7c0-2.6,0.5-5,1.5-7c1-2,2.4-3.6,4.2-4.7c1.8-1.1,4-1.7,6.4-1.7c2.3,0,4.4,0.6,6.1,1.7
		c1.8,1.1,3.1,2.6,4.1,4.6l14-7.2v8.6l-12.2,6.1v6.6h12.2v7.8h-36.3L-46.6,546.7L-46.6,546.7z M-29,553.7v-6.4
		c0-1.8-0.5-3.3-1.5-4.4s-2.4-1.6-4-1.6c-1.7,0-3.1,0.5-4.1,1.6c-1,1.1-1.5,2.6-1.5,4.4v6.4H-29L-29,553.7z M-46.6,520.9h21.1
		c2.9,0,5.2-0.6,6.6-1.7c1.5-1.1,2.2-2.9,2.2-5.4s-0.7-4.3-2.2-5.4c-1.5-1.2-3.7-1.7-6.6-1.7h-21.1v-7.8H-26c5.2,0,9.1,1.3,11.9,3.8
		s4.1,6.3,4.1,11.1c0,4.9-1.4,8.6-4.1,11.1s-6.7,3.8-11.9,3.8h-20.6V520.9z M-46.6,479.1c0-4.2,0.8-7.5,2.5-9.8
		c1.7-2.3,4-3.5,7.1-3.5c2.2,0,4.1,0.6,5.4,1.9c1.4,1.2,2.3,3,2.7,5.3c0.3-2.7,1.2-4.8,2.6-6.3s3.3-2.2,5.8-2.2
		c3.2,0,5.7,1.2,7.5,3.6c1.8,2.4,2.7,5.8,2.7,10.3v14.5h-36.3V479.1z M-31.7,485.1v-6.2c0-1.7-0.4-3-1.2-3.9
		c-0.8-0.9-1.9-1.4-3.2-1.4c-1.3,0-2.4,0.5-3.2,1.4c-0.8,0.9-1.2,2.2-1.2,3.9v6.2H-31.7L-31.7,485.1z M-16.5,485.1v-6.7
		c0-1.9-0.4-3.3-1.2-4.3c-0.8-1-1.9-1.5-3.3-1.5c-1.5,0-2.6,0.5-3.4,1.6c-0.8,1-1.2,2.5-1.2,4.3v6.7H-16.5L-16.5,485.1z"/>
</g>
</svg>
