<?xml version="1.0" encoding="utf-8"?>
<!-- Generator: Adobe Illustrator 19.0.0, SVG Export Plug-In . SVG Version: 6.00 Build 0)  -->
<svg version="1.1" id="Layer_1" xmlns="http://www.w3.org/2000/svg" xmlns:xlink="http://www.w3.org/1999/xlink" x="0px" y="0px"
	 viewBox="-233 363 300 300" style="enable-background:new -233 363 300 300;" xml:space="preserve">
<style type="text/css">
	.st0{fill:#3D2096;}
	.st1{fill:#FFFFFF;}
</style>
<g id="Main">
	<g>
		<circle class="st0" cx="-83" cy="513" r="150"/>
	</g>
	<g id="Logo">
		<g id="XMLID_1_">
			<polygon class="st1" points="-57.5,464.5 -67.5,464.5 -67.5,561.5 -57.5,561.5 			"/>
		</g>
		<g id="XMLID_2_">
			<path class="st1" d="M-87.9,474.5v77.1H-165v-77.1L-87.9,474.5 M-77.9,464.5H-175v97.1h97.1V464.5L-77.9,464.5z"/>
		</g>
	</g>
</g>
<g id="Currency">
	<path class="st1" d="M-22.4,554.5c1.7-0.1,3-0.8,4.1-2.1c1-1.2,1.5-2.9,1.5-5c0-1.7-0.4-3.1-1.1-4.2c-0.7-1.1-1.7-1.6-3-1.6
		c-0.9,0-1.6,0.3-2.2,0.9c-0.5,0.6-1,1.4-1.3,2.5s-0.7,2.8-1.1,5c-0.4,2.2-1,4.1-1.6,5.6c-0.7,1.5-1.7,2.8-3,3.7
		c-1.3,1-3.1,1.4-5.2,1.4c-2,0-3.7-0.5-5.3-1.6s-2.8-2.6-3.7-4.5c-0.9-1.9-1.3-4.1-1.3-6.5c0-2.5,0.5-4.7,1.4-6.7
		c0.9-2,2.2-3.6,3.8-4.7c1.6-1.2,3.5-1.7,5.5-1.8v7.1c-1.5,0.2-2.6,0.8-3.5,1.8c-0.9,1.1-1.3,2.5-1.3,4.2c0,1.6,0.3,2.9,1,3.9
		c0.7,1,1.7,1.5,2.9,1.5c0.9,0,1.6-0.3,2.1-0.9c0.5-0.6,0.9-1.4,1.2-2.5c0.3-1.1,0.7-2.7,1.1-5c0.4-2.3,0.9-4.2,1.6-5.7
		c0.6-1.6,1.6-2.8,2.9-3.8c1.3-1,3-1.4,5.1-1.4c2.1,0,3.9,0.6,5.6,1.7c1.6,1.1,2.9,2.7,3.9,4.7c0.9,2,1.4,4.3,1.4,6.8
		c0,2.7-0.5,5.1-1.5,7.3c-1,2.1-2.4,3.8-4.1,5c-1.7,1.2-3.7,1.8-5.9,1.8L-22.4,554.5L-22.4,554.5z M-28.3,531.2
		c-3.5,0-6.5-0.7-9.1-2s-4.6-3.3-6.1-5.9c-1.4-2.5-2.1-5.5-2.1-9c0-2.7,0.5-5.1,1.6-7.2c1-2.1,2.5-3.9,4.4-5.2
		c1.9-1.3,4-2.1,6.5-2.4v7.2c-1.9,0.5-3.4,1.4-4.5,2.7s-1.7,3.1-1.7,5.1c0,1.9,0.5,3.5,1.4,4.9c0.9,1.4,2.3,2.5,3.9,3.2
		s3.6,1.1,5.8,1.1c3.3,0,6-0.8,8.1-2.5c2-1.6,3.1-3.9,3.1-6.8c0-2.1-0.6-4-1.7-5.6c-1.2-1.6-2.8-2.6-5.1-2.9h-0.4v8.5h-5.8v-15.2
		h18.9v5.1l-4.2,0.8c1.3,1,2.4,2.3,3.3,4c0.8,1.7,1.3,3.6,1.3,5.9c0,3.2-0.7,6-2.1,8.5c-1.4,2.4-3.5,4.3-6.1,5.7
		C-21.9,530.6-24.9,531.2-28.3,531.2L-28.3,531.2z M-45.3,493.5v-11.8c0-3.4,0.7-6.4,2.2-9c1.4-2.6,3.5-4.6,6-6
		c2.6-1.4,5.5-2.1,8.8-2.1s6.2,0.7,8.8,2.1s4.6,3.4,6,6s2.2,5.6,2.2,9v11.8H-45.3z M-17.4,481.7c0-3.1-1-5.5-3-7.2
		c-2-1.7-4.6-2.6-7.9-2.6s-6,0.9-7.9,2.6c-2,1.7-3,4.1-3,7.2v4.5h21.9V481.7z"/>
</g>
</svg>
