<?xml version="1.0" encoding="utf-8"?>
<!-- Generator: Adobe Illustrator 19.0.0, SVG Export Plug-In . SVG Version: 6.00 Build 0)  -->
<svg version="1.1" id="TRX" xmlns="http://www.w3.org/2000/svg" xmlns:xlink="http://www.w3.org/1999/xlink" x="0px" y="0px"
	 viewBox="-233 363 300 300" style="enable-background:new -233 363 300 300;" xml:space="preserve">
<style type="text/css">
	.st0{fill:#45992F;}
	.st1{fill:#FFFFFF;}
</style>
<g id="Main">
	<g>
		<circle class="st0" cx="-83" cy="513" r="150"/>
	</g>
	<g id="Logo">
		<g id="XMLID_1_">
			<polygon class="st1" points="-57.5,464.5 -67.5,464.5 -67.5,561.5 -57.5,561.5 			"/>
		</g>
		<g id="XMLID_2_">
			<path class="st1" d="M-87.9,474.5v77.1H-165v-77.1L-87.9,474.5 M-77.9,464.5H-175v97.1h97.1V464.5L-77.9,464.5z"/>
		</g>
	</g>
</g>
<g id="Currency">
	<path class="st1" d="M-46.4,561.5v-28.6h6.7v10.4h29.5v7.7h-29.5v10.4H-46.4L-46.4,561.5z M-46.4,513.9c0-2.6,0.5-4.9,1.5-6.9
		c1-2,2.4-3.6,4.2-4.7c1.8-1.1,3.9-1.7,6.4-1.7c2.3,0,4.3,0.6,6.1,1.7c1.8,1.1,3.1,2.6,4.1,4.5l13.9-7.1v8.6l-12.1,6v6.6h12.1v7.7
		h-36.2V513.9z M-28.8,520.9v-6.4c0-1.8-0.5-3.3-1.5-4.4c-1-1.1-2.3-1.6-4-1.6c-1.7,0-3.1,0.5-4.1,1.6c-1,1.1-1.5,2.5-1.5,4.4v6.4
		H-28.8L-28.8,520.9z M-28.7,486.1l-17.7,11.3v-9.4l11.4-7.1l-11.4-7.3v-8.5l17.7,11.3l18.4-11.8v9.5l-12.1,7.7l12.1,7.9v8.4
		L-28.7,486.1L-28.7,486.1z"/>
</g>
</svg>
