<?xml version="1.0" encoding="utf-8"?>
<!-- Generator: Adobe Illustrator 19.0.0, SVG Export Plug-In . SVG Version: 6.00 Build 0)  -->
<svg version="1.1" xmlns="http://www.w3.org/2000/svg" xmlns:xlink="http://www.w3.org/1999/xlink" x="0px" y="0px"
	 viewBox="-233 363 300 300" style="enable-background:new -233 363 300 300;" xml:space="preserve">
<style type="text/css">
	.st0{fill:#234CAA;}
	.st1{fill:#FFFFFF;}
</style>
<g id="XAG">
	<g id="Main">
		<g>
			<circle class="st0" cx="-83" cy="513" r="150"/>
		</g>
		<g id="Logo">
			<g id="XMLID_1_">
				<polygon class="st1" points="-57.5,464.5 -67.5,464.5 -67.5,561.5 -57.5,561.5 				"/>
			</g>
			<g id="XMLID_2_">
				<path class="st1" d="M-87.9,474.5v77.1H-165v-77.1L-87.9,474.5 M-77.9,464.5H-175v97.1h97.1V464.5L-77.9,464.5z"/>
			</g>
		</g>
	</g>
	<g id="Currency">
		<path id="XAG_1_" class="st1" d="M-28.7,550.6l-16.5,10.5v-8.8l10.6-6.6l-10.6-6.8V531l16.5,10.5l17.2-11v8.8l-11.3,7.2l11.3,7.3
			v7.8L-28.7,550.6L-28.7,550.6z M-11.5,529.6l-33.7-12.3v-8.7l33.7-12.2v7.7l-7.4,2.6v12.8l7.4,2.6V529.6L-11.5,529.6z
			 M-24.7,517.6v-8.9l-12.8,4.5L-24.7,517.6z M-28.3,496.1c-3.4,0-6.4-0.7-9-2s-4.6-3.3-6-5.8c-1.4-2.5-2.1-5.5-2.1-8.9
			c0-2.7,0.5-5,1.5-7.2c1-2.1,2.5-3.8,4.3-5.1c1.9-1.3,4-2.1,6.4-2.4v7.1c-1.9,0.4-3.4,1.3-4.5,2.7c-1.1,1.3-1.7,3-1.7,5
			c0,1.9,0.5,3.5,1.4,4.9c0.9,1.4,2.2,2.4,3.9,3.2s3.6,1.1,5.7,1.1c3.3,0,6-0.8,8-2.4c2-1.6,3-3.9,3-6.7c0-2.1-0.6-3.9-1.7-5.5
			c-1.1-1.6-2.8-2.6-5-2.9h-0.4v8.4h-5.7v-15.1h18.7v5l-4.2,0.8c1.3,1,2.4,2.3,3.2,4c0.8,1.7,1.3,3.6,1.3,5.8c0,3.2-0.7,6-2.1,8.4
			s-3.4,4.3-6,5.6C-21.9,495.4-24.9,496.1-28.3,496.1L-28.3,496.1z"/>
	</g>
</g>
<g id="Grid">
</g>
</svg>
