<?xml version="1.0" encoding="utf-8"?>
<!-- Generator: Adobe Illustrator 19.0.0, SVG Export Plug-In . SVG Version: 6.00 Build 0)  -->
<svg version="1.1" id="XRP_1_" xmlns="http://www.w3.org/2000/svg" xmlns:xlink="http://www.w3.org/1999/xlink" x="0px" y="0px"
	 viewBox="-233 363 300 300" style="enable-background:new -233 363 300 300;" xml:space="preserve">
<style type="text/css">
	.st0{fill:#45992F;}
	.st1{fill:#FFFFFF;}
</style>
<g id="Main">
	<g>
		<circle class="st0" cx="-83" cy="513" r="150"/>
	</g>
	<g id="Logo">
		<g id="XMLID_1_">
			<polygon class="st1" points="-57.5,464.5 -67.5,464.5 -67.5,561.5 -57.5,561.5 			"/>
		</g>
		<g id="XMLID_2_">
			<path class="st1" d="M-87.9,474.5v77.1H-165v-77.1L-87.9,474.5 M-77.9,464.5H-175v97.1h97.1V464.5L-77.9,464.5z"/>
		</g>
	</g>
</g>
<g id="Currency">
	<path id="XRP" class="st1" d="M-10.5,553.2l-12-7.8l12-7.6v-9.3l-18.2,11.7l-17.5-11.1v8.4l11.2,7.2l-11.2,7v9.3l17.5-11.1
		l18.2,11.7V553.2z M-10.5,517h-12v-6.5l12-6v-8.5l-13.8,7c-0.9-1.9-2.3-3.4-4-4.5c-1.8-1.1-3.8-1.6-6-1.6c-2.4,0-4.5,0.5-6.3,1.6
		c-1.8,1.1-3.2,2.6-4.2,4.6s-1.5,4.3-1.5,6.9l0,0v14.5h35.7V517z M-28.8,510.8v6.3h-11v-6.3c0-1.8,0.5-3.2,1.5-4.3
		c1-1.1,2.3-1.6,4-1.6c1.7,0,3,0.5,4,1.6C-29.3,507.5-28.8,509-28.8,510.8L-28.8,510.8z M-10.5,484.3h-12v-6.9
		c0-2.5-0.5-4.8-1.5-6.8c-1-2-2.3-3.5-4.1-4.5c-1.8-1.1-3.9-1.6-6.2-1.6s-4.5,0.5-6.3,1.6c-1.8,1.1-3.2,2.6-4.2,4.5
		c-1,2-1.5,4.2-1.5,6.8l0,0v14.5h35.7V484.3z M-28.8,478.1v6.2h-11v-6.2c0-1.8,0.5-3.2,1.5-4.3c1-1.1,2.3-1.6,4-1.6
		c1.7,0,3,0.5,4,1.6C-29.3,474.9-28.8,476.3-28.8,478.1L-28.8,478.1z"/>
</g>
</svg>
